<?xml version="1.0" encoding="utf-8"?>
<!-- Generator: Adobe Illustrator 13.0.0, SVG Export Plug-In . SVG Version: 6.00 Build 14948)  -->
<!DOCTYPE svg PUBLIC "-//W3C//DTD SVG 1.1//EN" "http://www.w3.org/Graphics/SVG/1.1/DTD/svg11.dtd">
<svg version="1.1" id="Layer_1" xmlns="http://www.w3.org/2000/svg" xmlns:xlink="http://www.w3.org/1999/xlink" x="0px" y="0px"
	 width="292px" height="360px" viewBox="0 0 292 360" enable-background="new 0 0 292 360" xml:space="preserve">
<g>
	<path d="M138.4,4c5.863,19.738,9.2,31.069,10,34l0.398,2.4c-0.268,0.8-0.537,1.2-0.799,1.2c-0.801,0-2-1.331-3.601-4
		c-0.538-1.063-1.337-2.4-2.4-4l-0.4,2.4v2l4.8,75.2c0,3.2,0.13,4.8,0.4,4.8c2.932-1.6,5.201-4.4,6.801-8.4
		c1.6-3.731,2.399-7.331,2.399-10.8c0-9.332-1.869-20.8-5.601-34.4l4-11.6c2.931,4.8,5.063,10.538,6.398,17.2
		c0.264,1.069,0.932,4.4,2,10c1.332,13.338,2.133,20.538,2.4,21.6c1.332,5.6,3.199,9.6,5.6,12c3.463,2.938,6.531,4.4,9.201,4.4
		l1.6,0.4c3.73,0,6.662-0.932,8.801-2.8l0.8-0.4c0-1.862-0.668-4.531-2-8c-0.8-2.4-2.269-6.663-4.4-12.8
		c-1.868-5.063-3.198-9.463-4-13.2c-0.536-2.663-0.938-7.2-1.198-13.6l-2-4.8l2-4.8l2.399-6c0.263,0.269,3.601,6.4,10,18.4
		l0.399,1.2V72c0,0.538-0.139,0.8-0.399,0.8c-0.271,0-1.601-0.931-4-2.8H187.6v0.4v0.8c0,0.8,0.662,3.737,2,8.8
		c4.53,13.6,6.799,20.669,6.799,21.2v4c0,5.6-1.336,11.6-4,18c-0.537,1.337-1.736,2.8-3.601,4.4c-1.067,1.069-2.399,1.738-4,2
		c-1.337,0.269-2.268,0.4-2.799,0.4h-4c-1.869,0-4.399-0.8-7.601-2.4c-2.938-1.862-5.2-4.262-6.801-7.2
		c-2.938-4.531-4.668-8.932-5.199-13.2l-0.399-2c-0.801,5.069-1.737,9.2-2.801,12.4c-1.601,3.469-3.737,6.938-6.4,10.4l-1.6,1.2
		c2.131,30.938,3.2,49.337,3.2,55.2l0.398,6.399c0,11.462-0.537,19.063-1.6,22.8c0,1.601-0.668,4.801-2,9.601
		c-0.8,2.132-1.6,3.2-2.4,3.2c0-9.869-0.269-20.537-0.8-32c-1.6-26.664-2.938-46.933-4-60.8c-1.6,0.269-2.8,0.4-3.6,0.4h-1.6
		c-2.938,0-6-1.2-9.2-3.6c-2.669-1.863-4.269-3.463-4.8-4.8c-1.068-2.131-2.137-5.862-3.2-11.2l-0.4-6.4c0-5.063,0.8-11.2,2.4-18.4
		l2-10.4h-0.8c-0.537,1.069-1.068,2.138-1.6,3.2c-1.069,1.337-1.869,3.2-2.4,5.6c-0.537,0.269-1.6,2.938-3.2,8l-0.4,2l3.6,44
		c7.463,1.6,11.463,2.538,12,2.8c0.263,0,0.4,0.269,0.4,0.8c0,0.269-1.738,3.869-5.2,10.8c-3.737,1.337-5.869,2.137-6.4,2.4
		c1.6,25.337,2.4,38.931,2.4,40.8c2.663,0.264,5.2,0.932,7.6,2c1.6,0.53,3.731,2.264,6.4,5.2c2.4,2.399,4.131,5.199,5.2,8.399
		c0.262,1.33,0.531,4,0.8,8c0,9.861-2.538,19.601-7.6,29.199c-1.6,2.933-3.869,6.263-6.8,10h1.2c5.063,0,9.463-0.668,13.2-2
		c1.6-3.469,4-7.737,7.2-12.801c0.801-1.068,1.199-1.736,1.199-2l-9.2-7.199c0-0.27,1.6-2.938,4.8-8c1.063-1.6,1.731-2.399,2-2.399
		c6.399,4.801,10.262,7.731,11.601,8.801c-1.339,2.132-3.601,5.33-6.802,9.601c0,0.531-0.137,0.8-0.399,0.8h-0.799
		c0,0.263-1.738,3.462-5.201,9.601l-1.2,2.799h0.4c6.131-1.867,11.331-4,15.6-6.398H160c-0.801-2.938-1.201-6.399-1.201-10.399
		V239.2c0-4.269,0.663-10.938,2-20c1.863-6.938,4-13.2,6.4-18.8c0.801-2.139,2.662-5.738,5.6-10.801
		c2.663-3.47,5.602-7.199,8.801-11.2c-3.738-3.2-7.6-6-11.6-8.4c-5.869-3.2-9.201-5.331-10-6.4c-2.4-1.862-3.602-3.462-3.602-4.8
		c-0.269-0.8-0.398-1.863-0.398-3.2v-2c0-4.262,1.33-8,4-11.2c1.063-1.063,2.398-2,4-2.8c3.199-0.8,10-1.2,20.398-1.2h0.399h0.399
		l25.201,0.4l-6-78l-1.201-2.8L208,46.4h0.398c0.264,0.537,1.731,4.8,4.399,12.8C216,69.6,217.73,75.338,218,76.4v0.8
		c0,0.8-0.139,1.2-0.4,1.2c-0.801,0-1.6-0.8-2.399-2.4l-2.4-3.6l-0.8,0.4c0.799,6.4,2.662,28.538,5.6,66.4l7.601,0.4
		c0.801,0.269,3.463,0.669,8,1.2c-1.869-31.462-2.8-47.462-2.8-48c-0.27-1.063-0.801-2.263-1.602-3.6
		c1.063-3.462,2.663-7.731,4.801-12.8c1.601,5.337,3.601,10.938,6,16.8c1.601,4.538,5.199,12,10.801,22.4
		c7.199,12.269,13.33,22.4,18.398,30.4c3.732,6.938,7.463,14.4,11.201,22.4c3.73,9.337,5.861,15.338,6.398,18
		c2.664,9.6,4,15.463,4,17.6c1.063,6.662,1.602,11.463,1.602,14.4v4.8c0,11.462-2.67,24.663-8,39.601
		c-2.139,5.6-3.338,8.662-3.602,9.199l-1.199,1.6h-0.4v-0.799c0-1.601,0.4-3.338,1.201-5.201c3.73-13.336,5.6-20.938,5.6-22.799
		c0.531-4.27,0.801-8.938,0.801-14V229.2c0-4.8-0.938-12.269-2.801-22.399c-0.801-5.068-2.27-10.67-4.399-16.801
		c-2.138-5.6-4.138-10.662-6-15.2c-6.138-12.263-11.869-22.663-17.199-31.2c-7.469-13.063-13.338-23.462-17.601-31.2l2,29.2
		c5.063,1.069,8.263,1.869,9.601,2.4l-5.201,11.2c-1.868,0.538-2.938,0.938-3.198,1.2l2.799,42c2.399,0.8,5.063,2.399,8,4.8
		c1.863,2.132,3.332,3.731,4.399,4.8c2.663,4,4,9.463,4,16.4c0,4-0.799,9.33-2.399,16c-1.336,4.8-3.336,9.199-6,13.199
		C246,264,237.6,272.264,227.2,278.4c-1.339,0.531-4.938,2.131-10.8,4.8c-6.139,2.132-11.069,3.2-14.801,3.2
		c-1.067,0-2.138,0-3.199,0h-2c-5.069,0-11.2-1.869-18.399-5.601h-0.399c-6.67,6.662-11.47,11.063-14.4,13.199
		c-2.668,1.601-5.068,2.399-7.199,2.399c-3.469-0.27-5.602-0.668-6.4-1.199c-2.399-1.069-4.269-2.27-5.6-3.602
		c-0.538-0.537-1.6-1.736-3.2-3.6c-2.668-4.537-4-9.068-4-13.6V273.6c-4.8,0.801-8.137,1.201-10,1.201l-4,0.399
		c-2.137,0-4.938-0.399-8.4-1.2c-0.538,0-3.337,1.6-8.4,4.801c-1.337,0.799-4.669,2.398-10,4.799
		c-6.138,2.133-10.269,3.201-12.4,3.201c-1.069,0.262-2.269,0.398-3.6,0.398h-3.2c-8,0-15.2-2.537-21.6-7.6
		c-11.738,12.264-17.869,18.53-18.4,18.801c-1.6,1.063-2.4,1.861-2.4,2.399c-3.2,6.132-4.8,9.601-4.8,10.399
		c-0.8,3.199-1.2,5.861-1.2,8v0.398c0,4,1.6,7.332,4.8,10c2.4,1.332,4.662,2,6.8,2h0.8c2.663,0,5.863-0.938,9.6-2.799
		c3.462-2.4,8.531-6.27,15.2-11.602c5.331-4,10.131-7.736,14.4-11.199c6.931-4.537,12.531-7.737,16.8-9.6
		c5.863-2.139,9.863-3.201,12-3.201c0.531,0,2.531-0.137,6-0.398l2.4,0.398h0.4l4,0.399c1.6-2.137,2.4-3.469,2.4-4
		c0.8,2.132,2.531,4.265,5.2,6.399c2.931,2.662,5.731,4.802,8.4,6.4c2.663,1.063,4.931,2,6.8,2.801
		C150,306.801,155.2,307.6,160,307.6c6.398,0,11.199-0.398,14.398-1.199c5.332-0.801,11.063-2.137,17.201-4
		c9.33-3.199,14.131-4.801,14.399-4.801v0.4l-1.601,4.4c0.263,1.6,1.461,3.199,3.601,4.8c1.601,0.8,3.33,1.2,5.199,1.2h1.2
		c2.931,0,6.131-1.469,9.601-4.4c2.662-2.4,4.262-4.27,4.799-5.6c2.132-2.938,3.463-4.67,4-5.2c0.265-0.269,1.063-0.669,2.399-1.2
		l-2.799,7.2c0.263,1.331,1.199,2.663,2.799,4c1.063,0.53,2.802,1.2,5.201,2c5.601,0,9.199-3.069,10.799-9.2l3.201-7.199
		c0.263-0.537,0.531-0.801,0.799-0.801c0.531,0.531,1.063,2.131,1.601,4.801c0.531,1.063,1.463,2.398,2.802,4
		c1.6,1.6,3.6,2.662,6,3.199c0.53,0.264,1.861,0.4,4,0.4l3.6-0.4c1.6-0.537,2.801-1.068,3.6-1.6c-0.268-1.869-2-6.801-5.199-14.801
		c-1.869-4.537-4.537-13.068-8-25.601l-2-3.601c2.131-6.938,3.463-10.668,4-11.199h0.4l10.398,16l0.399,1.199L276.4,261.6
		c-0.27,0-1.338-0.668-3.2-2L272,259.2c0,0.8,1.33,4.8,4,12c2.932,8.8,4.398,13.331,4.398,13.601
		c0.264,1.063,0.399,3.199,0.399,6.399v2v0.399c-0.537,5.332-1.337,8.801-2.399,10.399c-1.068,2.933-2.537,5.2-4.398,6.801
		c-1.869,1.063-3.869,1.601-6,1.601h-1.201c-2.137,0-4.668-0.67-7.6-2c-1.869-1.338-3.199-2.4-4-3.2
		c-0.801-1.601-1.737-3.47-2.801-5.601c-2.398,5.601-4.398,9.332-6,11.2c-2.668,2.931-5.469,4.399-8.398,4.399
		c-2.4-0.27-4.27-0.938-5.602-2c-1.601-1.069-2.799-2.67-3.601-4.801c0-0.537,0-1.869,0-4c-3.198,3.73-5.735,6.662-7.6,8.801
		c-3.47,3.199-6.938,4.8-10.4,4.8H210.4c-4,0-7.069-1.601-9.2-4.8c-0.8-1.6-1.2-3.199-1.2-4.799V308.8c-4,2.132-10,4.399-18,6.8
		c-10.4,2.662-18.27,4-23.602,4c-4.537,0-7.867-0.138-10-0.399c-3.468-0.8-6.667-1.868-9.6-3.2l-1.6-0.4
		c0,4.801-1.6,9.732-4.8,14.801c-1.6-0.537-3.469-1.868-5.6-4c-3.2-3.199-5.2-6-6-8.399c-1.068-3.469-1.6-7.469-1.6-12
		c-2.138-0.537-4.8-0.8-8-0.8c-2.4,0-6.138,0.662-11.2,2c-5.869,2.132-11.469,4.931-16.8,8.398c-2.938,2.4-10.138,7.863-21.6,16.4
		c-7.2,5.332-12.269,8-15.2,8l-2.4,0.801c-3.2-0.537-5.737-1.201-7.6-2c-7.2-4.537-10.8-10.67-10.8-18.4c0-5.338,2-11.737,6-19.199
		h-0.4L28,301.6h-1.2c-2.4,0-5.068-0.799-8-2.398c-4-2.139-6.8-4.938-8.4-8.398C9.331,287.863,8.8,284,8.8,279.2
		c0-4.538,1.2-10.269,3.6-17.2c-2.938-1.068-5.337-2.537-7.2-4.4c-1.6-2.137-2.8-4.537-3.6-7.199C0.8,249.863,0.263,247.6,0,243.6
		v-0.799C0,239.6,0.8,235.2,2.4,229.6c2.131-5.6,4.8-10.799,8-15.6l0.8-0.4c-2.4-1.336-4.269-3.736-5.6-7.199
		c-0.538-1.6-0.8-3.6-0.8-6c0-4,0.932-8.801,2.8-14.399c1.862-5.862,3.862-11.2,6-16c3.462-7.731,5.862-13.063,7.2-16v-0.4h0.4
		l0.4,0.4c0,3.2-1.738,9.2-5.2,18c-2.668,7.469-4,11.869-4,13.2c-0.538,2.132-0.8,3.73-0.8,4.8v0.802c0,5.6,1.731,9.329,5.2,11.198
		l2,0.802h0.4L22.4,196c1.063-1.869,1.863-2.8,2.4-2.8c0.8,0.263,1.2,0.931,1.2,2v0.399c-0.8,2.662-1.469,4.399-2,5.2
		c-2.138,5.33-4.4,9.199-6.8,11.601c-1.338,1.33-2.269,2-2.8,2h-1.6c-3.737,6.399-5.869,10.662-6.4,12.8
		C4,233.063,2.8,237.332,2.8,240c0,3.73,0.8,6.531,2.4,8.4c1.6,1.33,3.063,2.262,4.4,2.8c1.331,0.53,2.262,0.8,2.8,0.8h1.2
		c5.331,0,12-3.199,20-9.6c2.131-1.601,3.6-2.938,4.4-4c0.531-6.4,1.331-12.537,2.4-18.4c1.332-5.6,3.2-11.469,5.6-17.6
		c2.931-6.67,5.462-11.338,7.6-14c2.4-2.938,4.8-5.863,7.2-8.8c-5.869-4.8-11.6-8.931-17.2-12.4c-5.337-3.2-8-6.263-8-9.2
		c-0.269-0.8-0.4-1.6-0.4-2.4v-1.2c0-4.8,1.6-8.8,4.8-12c1.862-1.6,3.862-2.531,6-2.8c1.331-0.262,4.4-0.531,9.2-0.8
		c19.731,0,37.6,0.8,53.6,2.4v-0.4l-1.2-18.4c-1.337,3.737-2.669,6.668-4,8.8c-1.869,2.138-3.069,3.2-3.6,3.2
		c-0.538,0.537-1.2,0.8-2,0.8c-1.869,0-4.269-1.331-7.2-4c-3.2-3.2-5.6-8.263-7.2-15.2c-1.069-1.862-1.869-7.462-2.4-16.8
		c0-4.263,0.131-8,0.4-11.2c-1.869,1.6-4.4,3.338-7.6,5.2c-5.6,3.2-11.2,5.869-16.8,8c-5.069,1.6-9.869,2.938-14.4,4
		c0-0.263,1.6-1.063,4.8-2.4c14.131-5.863,24.8-11.2,32-16c1.063-0.8,2.531-2,4.4-3.6l0.4-0.8c-2.137-1.063-3.2-2-3.2-2.8
		c-0.269-0.262-0.4-0.663-0.4-1.2v-0.8c0-1.862,1.2-4,3.6-6.4l1.6-1.6h-1.2v-0.4c1.063-2.663,2.131-4,3.2-4
		c2.4,1.069,5.063,3.6,8,7.6c1.6,2.938,2.4,5.069,2.4,6.4c0,1.869-0.8,4-2.4,6.4c-0.538,0.538-1.2,0.8-2,0.8h-0.4L86,83.6l-2.4,2.8
		c0.262,0.537,0.4,1.6,0.4,3.2c0.263,9.069,0.8,15.337,1.6,18.8c0,1.068,0.8,3.869,2.4,8.4c2.4,5.6,5.331,8.4,8.8,8.4
		c3.2,0,5.863-3.063,8-9.2c0.263-1.063,0.8-3.862,1.6-8.4v-0.4l-2.8-42.4c-0.538-14.663-0.938-22-1.2-22l-1.2-3.6v-0.4
		c0.262-1.863,1.731-5.863,4.4-12h0.4c0.263,0,0.8,0.8,1.6,2.4c1.6,4.538,5.063,15.337,10.4,32.4v0.8
		c-0.269,1.068-0.538,1.6-0.8,1.6c-0.8,0-2-1.462-3.6-4.4l-2.4-3.6l-0.4,2.4V62l1.6,22.4c0.531-2.131,2.131-5.332,4.8-9.6
		c3.731-5.6,6.531-8.4,8.4-8.4c1.063,0.537,1.6,1.869,1.6,4c0,1.6-1.069,8.269-3.2,20c-0.8,3.2-1.337,6.8-1.6,10.8
		c0,5.6,0.8,9.6,2.4,12c0.263,1.337,1.2,2.938,2.8,4.8c2.663,2.4,5.462,3.6,8.4,3.6h0.8h2.4c-3.469-68.262-5.338-102.531-5.6-102.8
		l-1.2-3.6C134.8,10.4,136.8,6.669,138.4,4z M28,223.6c1.063,0.264,2,1.201,2.8,2.801c0.263,0,0.4,0.132,0.4,0.4
		c-0.538,2.399-1.069,3.6-1.6,3.6l-2.4-2.399l-0.8-0.8c-1.6,0-2.668,2.662-3.2,8l-2,8.398l-1.2,1.201l-1.2-5.601
		c-0.8-2.399-1.469-4.269-2-5.601c-0.269-0.537-0.537-1.068-0.8-1.601c0,0.53-0.269,1.063-0.8,1.601c-2.669-1.869-4-2.938-4-3.199
		c0-3.2,0.8-4.801,2.4-4.801c1.6,0.264,2.931,1.332,4,3.2c1.6,2.132,2.8,5.33,3.6,9.601c0.8-4.801,1.731-8.537,2.8-11.2
		c0.531-1.601,1.462-2.8,2.8-3.601H28L28,223.6z M11.2,279.6c0,4,1.6,7.332,4.8,10c2.4,1.332,4,2,4.8,2c0.8,0.264,1.6,0.4,2.4,0.4
		c4,0,7.6-1.338,10.8-4l14.4-14c-3.2-3.469-6-8.938-8.4-16.4c-0.538-1.336-1.069-3.736-1.6-7.199
		c-1.869,1.332-3.737,2.933-5.6,4.801c-7.2,4.8-12.668,7.199-16.4,7.199c-1.337,0-2,0.531-2,1.601
		c-2.137,5.601-3.2,10.399-3.2,14.399V279.6z M39.2,268v0.801c-0.8,2.131-1.338,3.199-1.6,3.199c-8,4.531-14.138,8.264-18.4,11.2
		l-2,1.2c0.8-2.938,1.331-4.4,1.6-4.4c0.531-0.537,2-1.6,4.4-3.199c5.331-3.201,10.531-6.139,15.6-8.801H39.2L39.2,268z M40.8,173.2
		c1.332,0,2.4,0.938,3.2,2.8v0.8c-0.538,1.869-0.938,2.938-1.2,3.2c-1.337-1.6-2.269-2.4-2.8-2.4c-1.6,0-2.8,3.201-3.6,9.6
		c-0.8,5.063-1.6,7.601-2.4,7.601h-0.4c-1.069-4.801-1.869-8.139-2.4-10c-0.538-1.332-1.2-2.264-2-2.801
		c-0.269,0.27-0.4,0.938-0.4,2h-0.4c-1.869-1.6-3.2-2.8-4-3.6V180c0.263-2.662,0.663-4,1.2-4l1.2-0.4c1.6,0,3.332,1.469,5.2,4.4
		c1.063,1.6,2.131,4.27,3.2,8c0.8-7.463,2-11.862,3.6-13.2C39.6,174,40.263,173.469,40.8,173.2z M34,200c0,1.063-0.8,3.2-2.4,6.4
		c-1.337,2.131-2,3.729-2,4.8c0.531,1.862,1.063,2.8,1.6,2.8h0.4H32c1.063-1.6,1.731-2.4,2-2.4h0.4c0,1.332-1.2,3.201-3.6,5.602
		l-0.4,0.398c-1.6-0.537-2.4-1.336-2.4-2.398V214c0-2.4,1.862-6.938,5.6-13.6L34,200z M55.6,108.4c6.4,0.8,9.6,1.337,9.6,1.6
		c1.862,0.538,2.8,1.338,2.8,2.4c0,0.537-0.938,2.137-2.8,4.8c-0.8,1.337-3.2,4.138-7.2,8.4c-2.4,2.669-4.138,4-5.2,4
		c-2.668,0.269-5.068,0.4-7.2,0.4l-9.6,2v-0.4c1.063-1.331,3.731-2.8,8-4.4l13.2-5.6l1.2-1.2c-0.8-0.263-3.337-0.531-7.6-0.8h-3.6
		c-3.2,0-6.669,0.4-10.4,1.2l-0.4-0.4c2.4-4,4.4-7.2,6-9.6l1.2-1.2C47.6,108.8,51.6,108.4,55.6,108.4z M54.8,294
		c0.531,0,5.2,0.801,14,2.4L66.4,308.8l-12.8-1.6c-0.538,3.2-0.938,6.53-1.2,10l-0.4,1.2c-8.538-0.537-12.938-0.938-13.2-1.2
		c0.8-8.269,1.332-12.399,1.6-12.399L52.8,306L54.8,294z M40.8,154l10,6.4c3.2,1.869,6.531,4.269,10,7.2l6.8,5.6
		c2.931-2.131,6.8-4.8,11.6-8c7.462-4.531,16.131-8.663,26-12.4V152c-4.538-0.531-14.938-1.063-31.2-1.6H57.2
		c-4.538,0-8.669,0.4-12.4,1.2C42.4,152.4,41.063,153.2,40.8,154z M71.2,179.6c1.063,2.937,1.6,5.468,1.6,7.6
		c-0.269,1.601-0.537,2.399-0.8,2.399c-0.269,0-1.2-1.199-2.8-3.601l-2.4-2c-1.6,0.537-4.4,2.801-8.4,6.801
		c-2.4,2.931-4.4,5.729-6,8.399c-3.2,5.33-5.737,11.462-7.6,18.398c-1.337,5.332-2,9.201-2,11.602l-0.4,4.398v1.602
		c3.2-2.399,8.531-6.139,16-11.2c4.8-2.668,10.8-5.067,18-7.199l4.4-0.8c-1.068-4-1.6-7.469-1.6-10.4
		c0.262-5.336,0.531-8.537,0.8-9.6c0.8-2.668,2.8-6.137,6-10.4c3.2-3.199,5.731-5.063,7.6-5.6c0.262-0.262,1.063-0.4,2.4-0.4
		c1.063,0,1.862,0.4,2.4,1.201c0.531,1.068,2.131,4.268,4.8,9.6c1.331,1.601,2.662,3.063,4,4.4c1.063,0.531,2.8,1.463,5.2,2.799
		l-2.4-36c-9.069,3.2-16.8,6.269-23.2,9.2c-3.737,1.6-8.668,4.4-14.8,8.4L71.2,179.6z M44,246c1.063,4.801,2.131,8,3.2,9.6
		c0.8,1.863,2.131,4,4,6.4c2.131,1.863,4,3.463,5.6,4.801c5.332-4.801,9.863-8,13.6-9.601c2.663-1.601,6.131-3.069,10.4-4.399l12-4
		c-1.068-2.67-1.6-6-1.6-10c0-2.938,0.131-6,0.4-9.201c-2.938-0.799-6.538-1.199-10.8-1.199c-3.2,0-8,1.199-14.4,3.601
		c-5.337,2.662-10.137,5.463-14.4,8.399L44,246z M62.8,199.2c1.063,1.063,1.6,2.263,1.6,3.601l0.8,6
		C66.263,209.6,67.462,210,68.8,210h0.4c0.262,0,0.531-0.137,0.8-0.4c0-0.268-0.4-1.336-1.2-3.199l-1.2-4.399l1.2-2.8
		c0.531,2.662,1.332,5.199,2.4,7.602l0.4,0.398v2c-0.8,3.199-2,4.8-3.6,4.8s-2.8-0.8-3.6-2.399c-0.269-1.068-0.668-1.601-1.2-1.601
		c-0.269,2.399-0.8,3.862-1.6,4.399c-0.8,0.263-1.337,0.4-1.6,0.4c-1.6,0-2.669-0.938-3.2-2.801c0-2.668-0.269-5.338-0.8-8
		c0.8-2.137,1.331-3.199,1.6-3.199c0.531,0.531,0.8,3.33,0.8,8.399c0,1.331,0.663,2.132,2,2.399h0.4c1.332,0,2-1.199,2-3.601V207.6
		L62,202C62.263,200.131,62.531,199.2,62.8,199.2z M61.6,239.2v0.8c-2.138,5.6-3.2,8.801-3.2,9.6c0,1.863,0.4,2.801,1.2,2.801
		c0,0.263,0.262,0.4,0.8,0.4c1.332-1.869,2.131-2.801,2.4-2.801v0.4c0,1.33-0.938,3.199-2.8,5.6l-0.8,0.801h-0.8
		c-0.538,0-1.069-0.67-1.6-2L56,253.2c0.8-3.47,1.331-5.2,1.6-5.2c0.531-2.668,1.6-5.6,3.2-8.8H61.6z M112,316.801v0.399
		c0,1.331-0.538,2.263-1.6,2.8c-14.137,6.932-27.2,14-39.2,21.2c-1.6,0.8-4,2.53-7.2,5.2l-2.4,2V348c0-1.068,0.4-2.4,1.2-4
		c1.863-1.869,3.463-3.199,4.8-4c0.8-0.537,6.131-3.469,16-8.8C101.2,322.4,110.663,317.6,112,316.801z M70.4,60l0.8,0.4v1.2l-4,8.8
		c-1.069,2.668-1.6,4.668-1.6,6v0.8c0,1.069,0.663,2,2,2.8l1.2,0.8h0.4l2.4-4l0.4-0.4l0.4,0.8c-0.269,2.669-1.737,5.469-4.4,8.4
		h-0.8c-1.6,0-2.938-1.2-4-3.6v-1.2v-2c0-2.663,1.6-7.332,4.8-14C68.531,64.269,69.331,62.669,70.4,60z M64.8,271.6
		c4.263,2.133,9.6,3.201,16,3.201c4,0,8.8-0.801,14.4-2.4c5.6-2.137,8.531-3.338,8.8-3.6c-2.669-2.67-5.069-5.469-7.2-8.4
		l-0.4-1.199c-11.469,3.199-18,5.199-19.6,6c-4.8,1.861-8.668,3.861-11.6,6C64.931,271.2,64.8,271.332,64.8,271.6z M76.8,114.4v0.4
		c0,0.538-1.337,2.8-4,6.8c-1.068,2.4-1.6,4.269-1.6,5.6v0.4c0,1.337,0.531,2.269,1.6,2.8h0.8c1.063-1.863,1.862-2.8,2.4-2.8v0.4
		c0,1.069-1.2,2.938-3.6,5.6c-0.538,0.269-0.938,0.538-1.2,0.8c-1.6-0.531-2.4-2.131-2.4-4.8c0.263-1.6,1.2-4.131,2.8-7.6l4.8-7.6
		H76.8L76.8,114.4z M116,329.2c1.063,0,2.131,0.8,3.2,2.399c0.531,1.862,0.8,3.063,0.8,3.601c0,1.331-0.538,2.663-1.6,4L118,339.6
		h-1.2H116c-0.269-0.268-1.337-0.537-3.2-0.799c-1.068-0.27-1.869-0.801-2.4-1.601c-1.069,2.399-2.137,4.132-3.2,5.2
		c-2.669,2.131-5.738,4.131-9.2,6c-9.337,4.531-14.669,6.8-16,6.8c-4,0.53-7.6,1.331-10.8,2.399v-0.8
		c0.262-0.271,1.862-1.069,4.8-2.399l19.6-8.4c6.663-3.199,10.931-5.736,12.8-7.6c0.8-0.537,1.731-2.4,2.8-5.601l0.8,0.8
		c0.8-2.399,2-3.869,3.6-4.399H116L116,329.2z M73.6,232.801c1.063,0.531,2.4,1.6,4,3.199c1.6,1.863,2.4,3.6,2.4,5.2
		c0.531,1.331,0.8,2.263,0.8,2.8v3.2c0,1.063-0.4,2.663-1.2,4.8h-0.4c0.262-2.137,0.4-3.6,0.4-4.4V247.2c0-2.399-1.069-4.8-3.2-7.2
		l-4-3.6V236C72.663,233.863,73.063,232.801,73.6,232.801z M82.4,75.2c0,0.8,1.063,1.869,3.2,3.2l1.6,0.8
		c1.063-1.063,1.6-2.131,1.6-3.2v-0.8c0-1.063-0.537-1.862-1.6-2.4h-0.8c-1.337,0-2.668,0.668-4,2V75.2z M82.4,202.4
		c1.063,4.262,2.931,7.6,5.6,10c1.6,1.861,4,3.463,7.2,4.8c0.531-1.868,2.262-6,5.2-12.399c0.263-1.068,0.4-1.738,0.4-2
		c-0.269,0-1.869-3.068-4.8-9.201c-0.269-1.067-1.069-1.6-2.4-1.6c-3.2,0-6.538,2.531-10,7.6L82.4,202.4z M90.8,40h0.4
		c0,0.8-1.069,3.469-3.2,8c-0.538,1.6-0.8,3.069-0.8,4.4c0,1.337,0.531,2.269,1.6,2.8c1.332-1.862,2.263-2.931,2.8-3.2v0.4
		c0,0.8-0.669,2.4-2,4.8c-1.069,1.337-1.869,2-2.4,2c-0.8,0-1.6-0.8-2.4-2.4v-3.2c0.531-2.131,1.6-4.931,3.2-8.4
		C89.6,42.269,90.531,40.538,90.8,40z M88.8,79.6c3.463,1.869,5.6,2.8,6.4,2.8H96l0.4-0.4c-0.269-1.331-1.2-3.2-2.8-5.6
		c-0.269-0.263-0.938-1.063-2-2.4C91.331,76.138,90.4,78,88.8,79.6z M98,219.2c4.8,1.331,7.2,2.8,7.2,4.399l0.4,0.801
		c-0.538,7.199-1.2,10.932-2,11.199c-2.4-1.869-4.938-3.338-7.6-4.399v2.8c0,4.531,0.931,8.932,2.8,13.2h0.4
		c9.6-3.2,14.4-5.601,14.4-7.2v-1.6V237.6V236.4l-0.4-26c-4-0.801-6.8-2-8.4-3.601l-2-2c-0.269,0-1.469,3.063-3.6,9.199L98,219.2z
		 M120,212.4c0,11.199-0.669,19.199-2,24c-1.337,5.6-2.938,9.6-4.8,12c-0.269,0.8-1.2,2-2.8,3.6c-1.337,0.801-2.938,1.863-4.8,3.2
		c1.862,2.132,3.731,3.601,5.6,4.399c2.662,1.332,4.262,2,4.8,2c4.263-3.736,8.263-8,12-12.8c2.931-3.469,5.063-6.801,6.4-10
		c0.531-1.338,1.2-3.069,2-5.2c0-3.47-0.938-7.338-2.8-11.601c-1.069-1.601-2.669-3.601-4.8-6c-1.6-1.067-3.737-2.138-6.4-3.199
		L120,212.4z M111.2,348h0.8c1.6,3.73,2.4,7.2,2.4,10.4v0.8h-0.8l-0.8-3.601c-1.337-3.199-2-4.938-2-5.199
		C110.8,349.332,110.931,348.531,111.2,348z M112.8,334.4c0.531,0.531,2,1.063,4.4,1.6c0-0.8-0.669-1.869-2-3.199h-0.8
		C113.6,332.801,113.063,333.332,112.8,334.4z M121.6,346h0.4c-0.8,1.863-1.337,2.801-1.6,2.801l-0.4,1.6
		c0,0.263,0.663,0.662,2,1.199c0.263,0.264,0.4,0.664,0.4,1.201v0.399l-0.8,2.399c0,0.53,0.931,1.2,2.8,2l1.2-0.8h1.2v0.8
		c-1.869,1.063-3.469,1.601-4.8,1.601c-1.337-0.269-2-0.8-2-1.601c0-0.537,0.263-1.338,0.8-2.399v-0.8c-1.6-0.801-2.4-1.601-2.4-2.4
		v-0.4C119.2,349.2,120.263,347.332,121.6,346z M125.6,25.6v1.2c0,0.269-1.069,4.137-3.2,11.6v2c0,2.137,0.263,3.737,0.8,4.8
		c0.8,0.8,1.462,1.2,2,1.2h0.4l2-3.2l1.2-0.4l0.4,0.4c-0.269,2.138-1.6,4.538-4,7.2c-0.8,1.068-1.469,1.6-2,1.6h-0.4
		c-0.537,0-1.337-0.8-2.4-2.4c-0.538-1.6-0.8-3.063-0.8-4.4c0-3.2,1.731-9.2,5.2-18l0.8-2.4V25.6L125.6,25.6z M128.8,224.4v0.399
		c0,0.8-0.668,2.931-2,6.399c-0.8,1.601-1.2,3.063-1.2,4.398c0.531,1.863,1.331,2.801,2.4,2.801l1.6-2.399h0.4v0.399
		c0,1.332-0.8,2.933-2.4,4.801l-1.2,1.199c-1.069,0-1.869-0.668-2.4-2l-0.8-2V237.6c0-2.398,1.6-6.799,4.8-13.199H128.8L128.8,224.4
		z M134,159.2l0.4,0.8c0,1.069-1.337,5.2-4,12.4c-0.538,3.469-0.8,5.469-0.8,6v2c0,2.938,1.063,4.8,3.2,5.6h0.8
		c0.531,0,0.931-0.668,1.2-2c1.063-1.6,1.731-2.662,2-3.199v0.799v1.201c0,1.068-0.668,3.063-2,6c-0.537,1.33-1.469,2.531-2.8,3.6
		c-1.869,0-3.469-1.469-4.8-4.399c-0.269-1.338-0.4-2.138-0.4-2.399v-2.799c0-3.202,1.863-10.264,5.6-21.202
		C133.2,160,133.731,159.2,134,159.2z M129.2,347.2l0.8,1.601l0.4,0.399h1.2c0.8,0,1.731-0.399,2.8-1.2v0.4
		c0,0.8-0.538,1.729-1.6,2.8c-0.269,0.263-0.8,0.53-1.6,0.8c0.531,2.4,0.8,3.863,0.8,4.4v1.6c0,0.531-0.269,1.2-0.8,2l-0.8-4
		c-0.269-2.137-1.069-4.27-2.4-6.4V349.2C128.531,347.863,128.931,347.2,129.2,347.2z M138.4,351.6h0.4c1.6,1.063,2.4,1.732,2.4,2
		L140,356c-0.538,0-1.469-0.668-2.8-2C137.462,352.662,137.862,351.863,138.4,351.6z M139.6,273.6v1.201V276
		c0.262,2.131,0.931,4.264,2,6.4c1.862,2.399,3.731,3.861,5.6,4.399c1.063,0.263,2.661,0.399,4.801,0.399c1.33,0,3.33-0.399,6-1.2
		c2.931-1.601,6.931-4.668,12-9.199l0.799-1.601c-3.735-4.27-6.137-7.737-7.198-10.399l-0.802-2
		c-8.268,4.263-13.067,6.531-14.399,6.8c-5.6,1.862-8.538,2.932-8.799,3.2L139.6,273.6L139.6,273.6z M151.6,325.2h2
		c1.601,0,4.801,0.8,9.601,2.399c5.332,1.862,10.131,4.131,14.399,6.801l1.601,0.8v0.8h-0.8c-2.67-1.6-7.737-3.736-15.2-6.4
		c-4.8-1.6-9.068-2.398-12.8-2.398H149.6c-3.2,0.531-4.8,1.33-4.8,2.398c0,0.531,0.8,1.602,2.4,3.201c1.6,1.063,4,2.131,7.2,3.199
		v0.4l-2.399,6h1.199c1.862,0,4.399-1.201,7.6-3.601l0.4-0.399l-1.199-4L159.2,332.8V332.4c0-0.537,0.263-1.201,0.801-2
		c0,0.531,0.263,1.063,0.799,1.6v1.6c1.063,0.801,1.601,1.732,1.601,2.801v1.199c0,2.4-1.601,4.531-4.799,6.4
		c-2.139,1.063-4,1.6-5.601,1.6H151.2v0.4v0.4c0.263,1.861,1.6,2.799,4,2.799c0.801,0,1.2-0.137,1.2-0.398
		c0-1.338,0.8-2.801,2.398-4.4c1.063-0.801,1.863-1.199,2.4-1.199l2,0.8H164c1.063,0,1.6-0.138,1.6-0.399
		c-1.869-1.068-2.801-1.736-2.801-2V341.2c0.801-1.868,1.732-3.337,2.801-4.399l2,0.399c1.332,0,2.262-0.269,2.801-0.8l0.8-1.2
		c-0.8,2.663-1.737,4-2.8,4l-1.2,0.399l-2.4-0.399c0.802,1.331,2,2.132,3.601,2.399l0.399,0.399c0.802,0,3.063-1.067,6.802-3.199
		h0.399c-0.538,1.601-1.338,2.531-2.399,2.8c-0.802,0.53-1.338,1.063-1.601,1.601v0.399c0,1.601,0.931,2.53,2.799,2.801l0.4,0.399
		c0-0.538,1.332-2.399,4-5.601c-0.537-0.27-0.938-0.399-1.199-0.399h-2.399c0.799-1.601,1.6-2.399,2.399-2.399h0.399
		c1.063,0,1.601,0.262,1.601,0.8c0,1.063-1.469,3.462-4.399,7.2c0,0.262,0.799,0.531,2.399,0.8c3.199,1.063,4.799,2.132,4.799,3.2
		c0.265,0.262,0.4,0.8,0.4,1.6c-0.269,2.131-0.8,3.463-1.601,4c-0.537,0.531-1.067,0.801-1.6,0.801c-1.602,0-2.67-0.801-3.201-2.4
		c-0.799,1.332-1.6,2-2.398,2h-1.2c-1.339-0.27-2-1.067-2-2.399v-0.399c-0.8,1.332-1.737,2-2.8,2h-1.2
		c-1.601,1.862-3.869,3.063-6.8,3.601l-2,0.8l-7.602-0.8c0-0.269,2-0.538,6-0.8c2.932-0.537,5.732-1.469,8.4-2.801L166,355.2
		l-2-3.601c-1.869,0.801-3.201,1.731-4,2.801c-1.068,1.6-1.869,2.399-2.4,2.399c-1.6,0-2.668-1.2-3.199-3.601
		c0-0.801-0.139-1.2-0.399-1.2c-1.869,0-3.069-0.938-3.601-2.8l-0.801-0.801l0.801-2.801c-2.139-0.799-3.469-1.6-4-2.398l-0.4-2v-2
		c0-0.27,0.263-1.338,0.8-3.2c-2.4-1.601-3.6-3.47-3.6-5.601c0.262-0.801,0.8-1.737,1.6-2.801c1.063-0.799,2.931-1.6,5.601-2.398
		L151.6,325.2L151.6,325.2z M147.2,336l-0.4,3.2c0.263,1.063,0.8,1.862,1.601,2.399c0.531,0.264,1.461,0.53,2.8,0.801l2-4
		C150.799,337.6,148.799,336.801,147.2,336z M149.2,0c1.332,0.269,3.463,1.738,6.399,4.4c2.933,3.2,4.662,5.869,5.199,8
		c1.332,2.938,2,5.869,2,8.8v5.2c-0.268,3.2-0.799,4.8-1.6,4.8v-0.4v-5.2c0-5.862-2.27-11.2-6.801-16
		c-1.867-1.862-3.736-3.462-5.601-4.8V4.4L149.2,0z M163.2,346.801c-0.269,0-1.199-0.4-2.8-1.201c-0.27,0-0.801,0.264-1.602,0.801
		l1.201,0.801c-0.538,2.132-1.068,3.199-1.602,3.199c-0.269,0.263-1.199,0.662-2.799,1.199v1.201c0.262,1.6,0.932,2.399,2,2.399
		c0.799,0,2-1.47,3.6-4.399c1.332-1.068,2.531-1.601,3.6-1.601c0.264,0,1.063,0.931,2.4,2.8h0.4c0.262,0,0.399-0.4,0.399-1.199
		c0-0.801-0.67-2.139-2-4l2-1.201c1.063,0.801,1.601,2,1.601,3.602c0,0.8-0.4,2-1.201,3.602H170c0.531,0,1.462-0.671,2.799-2
		l0.4-0.4l0.4,0.4l-0.802,2c0.265,0.53,0.933,0.799,2,0.799c0.802,0,1.731-0.668,2.802-2h0.399h0.399L178,352.801
		c0,0.799,0.799,1.33,2.398,1.6c0.801,0,1.463-0.27,2-0.801c0-1.067-0.668-1.867-2-2.398c-0.537-0.27-2.799-1.069-6.799-2.398
		c-1.869-0.539-2.802-1.602-2.802-3.201V344v-0.4c-4,2.133-6.399,3.201-7.198,3.201H163.2z M163.2,173.6h0.399
		c0,1.069-0.399,2.538-1.199,4.4c0.263,0,0.8,0.4,1.601,1.2c2.662,1.069,4,2.669,4,4.8c-1.069,3.2-2,4.801-2.801,4.801
		c0,0.799-1.339,1.33-4,1.6c-1.869,0-2.938-0.938-3.199-2.801V186.4c0-1.601,0.662-3.863,2-6.8
		C161.063,176.938,162.131,174.938,163.2,173.6z M169.6,30.4c0.262,0.8,0.662,2.4,1.199,4.8c0.801,5.337,1.463,8,2,8
		c0.264,1.069,1.063,1.737,2.4,2H176c1.33,0,2-0.131,2-0.4l-2.8-10.4c0-0.531,0.661-1.731,2-3.6c1.862,6.669,2.8,10.269,2.8,10.8v2
		c-0.538,2.4-1.068,3.738-1.602,4c-0.799,1.337-1.601,2-2.398,2h-1.201c-1.068,0-2.268-0.8-3.6-2.4
		c-0.801-1.063-1.199-2.263-1.199-3.6c-1.338,4.538-3.338,6.8-6,6.8c-1.602,0-2.801-1.063-3.602-3.2V46v-8L160,36
		c0.799-2.931,1.33-4.4,1.6-4.4c0.531,1.069,0.801,2.4,0.801,4v7.6c0.263,1.869,1.063,2.8,2.398,2.8h0.4c1.6,0,2.801-0.931,3.6-2.8
		l0.801-2.4c-0.801-3.2-1.338-5.462-1.6-6.8C168.532,31.6,169.063,30.4,169.6,30.4z M160.4,181.6
		c-0.27,0.271-0.399,1.338-0.399,3.201c0,0.799,0.399,1.33,1.199,1.6h1.6c0.802,0,1.863-0.27,3.201-0.801V185.2
		c-1.601-1.862-3.201-2.931-4.801-3.2C161.2,181.738,160.932,181.6,160.4,181.6z M161.2,153.6c7.731,4.538,13.332,8,16.801,10.4
		l10,8.4c2.662-1.863,6.131-4.263,10.399-7.2c5.33-3.2,9.461-5.6,12.398-7.2l1.201-0.4l-0.801-7.2c-4.27-0.8-14.668-1.2-31.199-1.2
		c-9.338,0.269-14,0.8-14,1.6c-0.801,0-2.27,0.668-4.4,2L161.2,153.6z M218.4,165.2c-0.27,8.269-0.801,13.2-1.602,14.8
		c-1.068,5.068-2.137,7.6-3.199,7.6c-0.27,0-0.399-0.137-0.399-0.398v-2l0.399-7.2l-0.801-10c-2.137,0.538-6.537,2.669-13.199,6.4
		l-7.6,4.8c1.063,3.469,1.6,5.867,1.6,7.199c-0.537,2.132-0.938,3.199-1.199,3.199c-1.868-2.938-3.469-5.063-4.801-6.398
		c-0.27,0-0.537,0-0.801,0c-0.799,0-3.6,2.531-8.398,7.602c-3.737,4.53-7.069,9.86-10,16c-2.938,8-4.399,12.93-4.399,14.799
		c-0.538,2.932-0.801,6.399-0.801,10.399v3.601c0,4.53,0.932,9.332,2.801,14.399c6.399-4,10.799-6.8,13.199-8.399
		c1.063-0.799,3.731-2.938,8-6.399l0.399-0.8c0-4-1.067-9.2-3.199-15.601c-1.602-4.801-3.338-8.538-5.2-11.2V207.2l2.801-12
		c0.799,0.53,1.86,2.263,3.199,5.2c1.6,3.199,2.801,4.8,3.6,4.8c0.802,1.063,2.531,1.601,5.201,1.601
		c2.131,0,4.662-0.537,7.601-1.601c2.662-1.337,4.932-2.938,6.799-4.8c1.863-1.869,3.332-3.869,4.399-6
		c0.802-1.338,1.863-3.469,3.201-6.4c2.662,2.932,4.263,4.4,4.799,4.4c2.933,1.861,5.201,2.8,6.802,2.8l9.6,1.601l-2.4-38
		C232.932,159.6,227.462,161.738,218.4,165.2z M187.6,288.4c-0.801,2.932-1.6,4.399-2.399,4.399c-8.8,4.263-14.537,7.2-17.2,8.8
		l-3.201,2.4H164c0.531-1.6,1.199-2.938,2-4c1.861-1.338,5.199-3.338,10-6L187.6,288.4z M175.6,79.2v0.4v1.2
		c0,0.269-0.938,2.8-2.801,7.6c-0.268,1.337-0.398,2.269-0.398,2.8v0.4c0,1.337,0.662,2.269,2,2.8h0.398
		c0.801-1.863,1.463-2.932,2-3.2l0.4,0.4c0,1.6-0.938,3.869-2.801,6.8c-0.537,0.269-0.938,0.4-1.199,0.4
		c-1.6,0-2.537-1.063-2.801-3.2L170,94.4c0-2.663,1.462-6.8,4.398-12.4C174.932,80.138,175.331,79.2,175.6,79.2z M192.4,219.2H191.6
		v2.8c0,4.531-0.668,10-2,16.4c-1.338,4.531-2.938,7.463-4.801,8.8c-3.736,3.731-7.6,6.663-11.6,8.8L170,258.4
		c3.462,4.262,6.531,7.33,9.199,9.199c0.263,0,1.199-0.938,2.801-2.8c5.33-4.538,8.932-7.069,10.799-7.601
		c1.602-1.338,5.463-2.938,11.602-4.801c10.662-3.199,17.063-5.338,19.199-6.399c4-1.338,8-3.199,12-5.601c2.662-1.6,4-2.801,4-3.6
		V231.6c0-4.537-0.537-11.867-1.6-22c-4-0.537-6.27-0.799-6.801-0.799c0,5.33-0.801,9.6-2.4,12.799c0,0.264-0.398,1.063-1.199,2.4
		H227.2c-0.8,0-2.4-0.938-4.8-2.8c-4-3.2-6.801-7.337-8.399-12.399l-0.399-3.601v-0.8V204h-0.4L208,210.4
		c-2.67,2.932-4.801,4.932-6.4,6c-0.537,0.531-2.138,1.199-4.801,2C194.932,218.932,193.462,219.2,192.4,219.2z M177.2,216
		c0,1.6-0.537,3.2-1.601,4.801c-1.338,4-2,6.131-2,6.399l-0.399,1.601c0,1.861,0.932,2.932,2.801,3.199
		c1.33-2.137,2.131-3.199,2.399-3.199c0.531,0,0.8,0.131,0.8,0.399c-1.068,2.663-2.537,4.931-4.4,6.8
		c-1.6-0.27-2.399-0.537-2.399-0.8c-0.799,0-1.336-1.2-1.601-3.601c0-2.399,1.464-6.399,4.4-12C176.262,217.2,176.932,216,177.2,216
		z M244.799,212c0,11.73-0.799,20-2.398,24.801c-1.338,4.799-3.2,8.799-5.602,12c-2.137,1.6-4.537,3.199-7.199,4.799
		c-2.399,1.332-7.199,3.332-14.399,6c-8,2.133-14.668,4.4-20,6.801c-2.4,1.063-4.938,2.801-7.601,5.199
		c3.463,1.602,6.531,2.4,9.199,2.4h2c3.463,0,7.863-0.537,13.201-1.6c4.799-1.338,9.063-2.801,12.799-4.4
		c0.264,0,3.602-1.869,10-5.6c1.863-1.338,4.264-3.201,7.201-5.601c2.398-2.399,4.799-5.069,7.199-8c2.4-3.469,4.263-6.67,5.6-9.601
		c1.602-2.399,2.4-4.538,2.4-6.399c-0.537-4.538-1.199-7.469-2-8.801C253.063,218.131,249.6,214.131,244.799,212z M209.6,186v0.4
		c-0.801,2.399-1.6,3.6-2.399,3.6c-6.668,3.463-12,6.531-16,9.2l-2,1.2V200c1.332-2.938,2.131-4.4,2.399-4.4
		C194.532,193.73,200.532,190.531,209.6,186z M196,318.4c0,0.531-1.201,3.199-3.602,8L192,328.8v0.8c0,1.063,0.662,1.731,2,2
		l2-2.399h0.398v0.399c0,0.53-0.799,2-2.398,4.399c-0.801,0.801-1.338,1.2-1.602,1.2c-1.336,0-2.137-0.538-2.398-1.602l-0.4-1.6
		c0-2.137,1.601-6.27,4.801-12.4C194.932,319.332,195.462,318.932,196,318.4z M195.2,33.2h0.8v0.4c-0.538,1.337-1.338,3.738-2.4,7.2
		c-0.537,1.6-0.801,2.538-0.801,2.8V44c0,2.138,0.663,3.338,2,3.6c1.063-1.862,1.732-3.063,2-3.6l0.4,0.8v0.4c0,0.8-0.668,2.4-2,4.8
		c-0.801,0.8-1.338,1.2-1.6,1.2c-1.338,0-2.4-1.063-3.201-3.2v-0.8c0-2.4,1.201-6.131,3.602-11.2
		C194.532,34.138,194.932,33.2,195.2,33.2z M242,322.4c0.799,0.531,1.199,1.6,1.199,3.199c-0.537,4-1.6,6-3.199,6h-0.4
		c-1.6,0-2.801-0.668-3.6-2h-0.4l-0.801,1.601c-1.068,1.063-2,1.601-2.799,1.601c-0.801,0-2-0.537-3.602-1.601h-1.199
		c-2.4,0-6.668,2.132-12.801,6.399c-4,2.662-6.938,4.53-8.799,5.601c-2.139,0.8-6.4,1.862-12.802,3.2L192.4,346l3.601-1.6
		c5.86-2.139,11.729-5.338,17.601-9.601c6.399-4,9.861-6,10.399-6l3.601-1.601h0.799c1.063,0,2.264,0.531,3.602,1.601h1.199
		c1.063,0,2.4-1.2,4-3.601c0.531-0.801,0.932-1.2,1.199-1.2h0.801L238,326.801c0.262,0.531,0.932,0.799,2,0.799h1.6
		c-0.801-0.799-1.199-1.469-1.199-2C241.2,323.463,241.73,322.4,242,322.4z M215.2,223.6l2.801,10v1.602
		c-0.801,4.263-2.14,6.398-4,6.398h-0.399c-2.938,0-4.67-1.867-5.201-5.6c-0.799,2.932-1.736,4.662-2.799,5.2l-1.601,1.2
		c-1.869,0-3.201-1.068-4-3.2v-0.399v-4.4c0-1.868-0.14-3.737-0.399-5.6l1.6-3.201c0.263,0.531,0.4,2.4,0.4,5.602v4.398
		c0.262,1.863,1.198,2.801,2.799,2.801c1.602-0.537,2.399-1.199,2.399-2c0.265-0.27,0.4-1.199,0.4-2.801
		c0-1.6-0.269-3.736-0.8-6.398c1.063-2.139,1.73-3.338,2-3.602c0.263,0,0.531,1.732,0.8,5.201c0.263,3.73,0.801,5.861,1.6,6.399
		c0.531,1.862,1.732,2.8,3.601,2.8c1.332,0,2-0.537,2-1.6l-2-5.601l-0.799-3.601C214.131,225.6,214.663,224.4,215.2,223.6z
		 M248.799,336.4c-0.799,2.131-1.469,3.199-2,3.199c-10.668,4.801-17.6,8-20.799,9.601c-7.738,4.263-12.538,7.063-14.4,8.399
		l-2.399,1.2h-0.4c1.332-2.399,2.132-3.868,2.4-4.399c1.063-0.801,4.399-2.67,10-5.601c3.2-1.868,9.463-5.069,18.801-9.601
		L248.799,336.4z M220,283.2c0.262,0,0.398,0.132,0.398,0.399c-2.668,5.601-4,8.932-4,10c0.264,1.862,0.932,2.801,2,2.801l2-2.801
		h0.399v0.399c-0.536,2.399-1.868,4.399-4,6H216.4c-0.801,0-1.602-1.067-2.399-3.199v-1.2c0.799-2.938,2.399-6.268,4.799-10
		L220,283.2z M218.4,150.8v3.6l5.199-2.4c1.063-0.262,1.73-0.4,2-0.4C225.6,151.338,223.2,151.069,218.4,150.8z M225.6,101.2
		l0.4,0.4c0,0.538-1.068,3.469-3.201,8.8L222.4,112v0.8c0.263,1.869,0.8,2.8,1.601,2.8h0.799c0.531-1.6,0.933-2.531,1.201-2.8
		l0.399,0.4c0,0.269-0.399,1.469-1.2,3.6c-1.068,1.6-1.869,2.4-2.4,2.4c-1.6,0-2.399-1.2-2.399-3.6v-0.4
		c0.264-2.663,0.664-4.931,1.201-6.8C223.2,104.938,224.532,102.538,225.6,101.2z M223.2,170.8c3.2,1.6,5.463,4.4,6.801,8.4
		c0.263,1.601,0.399,3.337,0.399,5.2v1.199c0,2.662-0.27,5.332-0.801,8l-0.801,0.801c-0.268,0-0.398-0.271-0.398-0.801
		c0.8-2.668,1.199-4.399,1.199-5.199v-2c0-1.601-0.801-3.863-2.399-6.8c-1.068-1.331-2.668-2.931-4.8-4.8
		C222.932,172.4,223.2,171.069,223.2,170.8z M251.6,265.6v1.201c-0.27,1.6-0.801,2.662-1.6,3.199v0.4
		c2.398,1.33,3.861,2.8,4.398,4.399l0.399,1.601v0.399c-0.269,3.199-1.337,5.33-3.198,6.399c-0.802,0.263-1.47,0.398-2,0.398h-0.4
		c-1.338,0-2.537-0.537-3.6-1.6c-0.537-0.801-0.802-1.869-0.802-3.199c0.531-2.4,1.863-5.201,4-8.4
		C249.331,268.801,250.262,267.2,251.6,265.6z M248,274.4c-0.538,1.33-0.801,2.399-0.801,3.199v0.801c0.531,0.531,1.332,0.8,2.4,0.8
		l0.799,0.399c0.801,0,1.863-0.138,3.201-0.399c-0.537-1.069-1.601-2.138-3.201-3.2C249.6,274.932,248.799,274.4,248,274.4z
		 M257.2,318c0.263,0,1.2,0.531,2.801,1.6l4.799,3.602l3.201,3.199c-0.801,1.063-2.14,2.662-4,4.801
		c-1.869,3.199-3.201,4.931-4,5.199c-5.869-5.067-9.201-8-10-8.801L257.2,318z M257.6,157.6v0.4c0,0.8-0.938,4-2.801,9.6l-0.398,2
		c0.263,2.4,1.063,3.6,2.398,3.6h0.4c1.063-2.131,1.863-3.2,2.4-3.2v0.4c-0.802,2.938-2,5.2-3.601,6.8
		c-1.069,0-1.869-0.531-2.399-1.6c-0.802-1.331-1.201-2.4-1.201-3.2c0-2.4,1.463-7.063,4.399-14L257.6,157.6z M268.4,182.801h0.398
		c1.063,0.268,2,1.199,2.801,2.799c0,1.063-0.399,2.133-1.199,3.201c-0.539,0-0.938-0.139-1.2-0.4c-0.537-0.801-1.199-1.199-2-1.199
		c-1.601,0-2.537,2.398-2.8,7.199c-0.539,4.801-0.938,7.601-1.2,8.4l-0.8,0.399H262c-0.27,0-0.538-1.337-0.801-4
		c-0.801-4-2-7.069-3.6-9.2c0,1.332-0.139,2-0.4,2c-2.137-2.137-3.338-3.338-3.6-3.6c0.262-2.4,0.662-3.601,1.198-3.601l0.4-0.399
		c2.131,0,4,1.463,5.6,4.399c0.802,2.399,1.601,5.063,2.4,8c0.53-5.868,1.063-9.338,1.6-10.399
		C266.131,184,267.331,182.801,268.4,182.801z M276,209.2v0.399c0,1.063-1.338,4.399-4,10c-0.801,3.463-1.201,5.463-1.201,6
		c0,3.2,0.932,5.063,2.801,5.601l0.801,0.399l3.199-4.8l0.4,0.399v1.199c-2.67,5.332-4.801,8-6.4,8c-0.537-0.27-1.199-0.668-2-1.199
		c-1.067-1.602-1.6-3.469-1.6-5.602c0.262-1.6,0.531-3.199,0.799-4.799c1.332-3.738,3.463-8.67,6.4-14.801l0.4-0.8h0.4V209.2z"/>
</g>
</svg>
