<?xml version="1.0" standalone="no"?>
<!DOCTYPE svg PUBLIC "-//W3C//DTD SVG 20010904//EN"
 "http://www.w3.org/TR/2001/REC-SVG-20010904/DTD/svg10.dtd">
<svg version="1.0" xmlns="http://www.w3.org/2000/svg"
 width="1080.000000pt" height="1080.000000pt" viewBox="0 0 1080.000000 1080.000000"
 preserveAspectRatio="xMidYMid meet">
<metadata>
Created by potrace 1.14, written by Peter Selinger 2001-2017
</metadata>
<g transform="translate(0.000000,1080.000000) scale(0.100000,-0.100000)"
fill="#000000" stroke="none">
<path d="M6200 10286 c0 -14 -3 -16 -13 -7 -8 6 -17 8 -21 4 -12 -12 -40 -12
-53 -1 -10 8 -12 7 -8 -4 5 -13 -2 -15 -35 -12 -22 2 -39 0 -36 -4 2 -4 -4 -8
-14 -8 -11 0 -16 6 -13 16 4 12 3 12 -6 -1 -6 -9 -23 -16 -38 -15 -15 1 -34
-5 -42 -12 -9 -9 -17 -10 -25 -2 -7 5 -16 7 -19 3 -4 -3 -28 -8 -54 -10 -64
-5 -76 -7 -92 -17 -10 -6 -12 -5 -7 2 10 16 -5 14 -28 -3 -16 -12 -22 -12 -29
-2 -7 9 -10 9 -14 0 -2 -7 -9 -13 -14 -13 -6 0 -7 6 -3 13 5 8 2 8 -9 -2 -9
-7 -17 -10 -17 -6 0 4 -6 2 -14 -4 -11 -9 -15 -9 -19 1 -4 11 -6 10 -6 0 -1
-7 -5 -10 -11 -7 -5 3 -10 2 -10 -3 0 -5 -14 -8 -31 -6 -16 2 -28 0 -25 -4 3
-5 -17 -8 -44 -8 -26 1 -46 -2 -43 -6 2 -5 -5 -8 -17 -8 -12 0 -19 -4 -16 -8
3 -5 -8 -7 -23 -4 -16 2 -32 -1 -36 -8 -5 -8 -11 -8 -23 2 -12 10 -14 10 -8 1
4 -8 1 -13 -9 -13 -10 0 -14 5 -10 13 4 6 -2 1 -13 -12 -13 -16 -21 -20 -26
-12 -6 8 -12 9 -20 2 -9 -7 -17 -7 -26 2 -10 9 -11 9 -6 0 5 -9 -1 -13 -18
-13 -14 0 -26 -4 -26 -9 0 -6 -9 -8 -20 -6 -11 2 -22 0 -25 -5 -3 -5 -12 -7
-19 -4 -8 3 -17 0 -21 -6 -6 -9 -10 -9 -16 1 -6 10 -9 11 -9 2 0 -8 -13 -13
-29 -13 -17 0 -33 -5 -36 -10 -4 -6 -10 -8 -15 -5 -5 3 -11 1 -14 -3 -3 -5
-17 -8 -31 -7 -14 2 -25 -1 -25 -6 0 -5 -9 -9 -21 -9 -11 0 -30 -5 -41 -11
-16 -9 -19 -8 -12 3 6 10 5 11 -8 1 -8 -7 -18 -10 -21 -6 -4 3 -7 1 -7 -5 0
-6 -6 -9 -14 -6 -8 3 -17 0 -21 -6 -5 -8 -11 -7 -23 2 -13 11 -14 11 -7 -1 6
-11 4 -13 -8 -8 -10 4 -17 2 -17 -4 0 -6 -7 -8 -16 -5 -10 4 -13 2 -8 -6 5 -7
-1 -9 -19 -6 -15 3 -28 0 -30 -5 -2 -6 -14 -12 -28 -14 -44 -6 -53 -8 -117
-34 -18 -7 -21 -6 -16 3 6 9 3 9 -9 -1 -9 -7 -24 -11 -32 -7 -9 3 -13 2 -10
-4 3 -6 0 -11 -7 -12 -7 0 -17 -2 -23 -2 -5 -1 -15 -4 -20 -8 -6 -3 -28 -9
-50 -13 -22 -4 -46 -12 -52 -18 -7 -5 -13 -6 -13 -2 0 4 -6 2 -13 -4 -8 -6
-17 -8 -20 -4 -4 3 -7 1 -7 -5 0 -6 -9 -9 -20 -7 -11 2 -22 -1 -25 -6 -4 -5
-10 -7 -15 -4 -5 3 -11 1 -15 -5 -3 -5 -17 -10 -31 -10 -13 0 -24 -5 -24 -11
0 -6 -9 -9 -20 -6 -11 3 -20 0 -20 -5 0 -6 -7 -5 -16 2 -12 11 -15 11 -12 -1
2 -8 -4 -13 -14 -13 -10 1 -18 -3 -18 -9 0 -6 -3 -7 -7 -4 -3 4 -13 1 -21 -6
-13 -10 -15 -9 -8 3 6 11 4 11 -6 -1 -7 -9 -21 -15 -30 -13 -10 1 -18 -2 -18
-7 0 -6 -5 -7 -10 -4 -5 3 -10 2 -10 -4 0 -5 -11 -8 -25 -5 -14 2 -25 0 -25
-6 0 -6 -4 -9 -9 -6 -5 4 -11 1 -13 -4 -2 -6 -13 -12 -26 -13 -12 0 -22 -5
-22 -10 0 -4 -4 -5 -10 -2 -5 3 -10 0 -10 -7 0 -9 -3 -9 -10 2 -6 10 -10 11
-10 3 0 -7 -7 -13 -15 -13 -8 0 -15 -4 -15 -10 0 -5 -5 -10 -11 -10 -5 0 -7 5
-3 11 3 6 -5 4 -18 -5 -14 -9 -28 -13 -31 -9 -4 3 -7 1 -7 -5 0 -13 -26 -16
-33 -4 -2 4 -2 2 -1 -5 4 -16 -23 -25 -30 -10 -2 7 -5 5 -5 -5 -1 -11 -9 -15
-26 -13 -17 1 -29 -4 -35 -16 -6 -11 -18 -16 -31 -14 -16 3 -19 0 -15 -12 5
-13 4 -14 -9 -3 -10 8 -15 9 -15 1 0 -6 -9 -11 -21 -11 -11 0 -17 -4 -14 -10
3 -6 -1 -7 -9 -4 -10 4 -16 1 -16 -7 0 -7 -3 -9 -7 -6 -3 4 -13 1 -21 -6 -13
-10 -15 -9 -8 3 4 9 2 8 -7 -2 -8 -10 -17 -15 -20 -11 -4 3 -7 1 -7 -5 0 -7
-9 -12 -20 -12 -11 0 -23 -7 -26 -15 -4 -8 -10 -12 -15 -9 -5 3 -6 10 -3 16 4
7 2 8 -5 4 -6 -4 -9 -11 -6 -16 3 -5 -4 -11 -15 -15 -11 -4 -18 -11 -15 -16 4
-5 1 -9 -4 -9 -6 0 -11 5 -11 10 0 6 -4 10 -9 10 -6 0 -8 -9 -6 -21 4 -18 2
-19 -12 -7 -12 9 -15 9 -9 1 7 -12 -5 -18 -27 -14 -5 1 -6 -7 -2 -18 5 -16 2
-19 -19 -17 -19 2 -23 -1 -18 -13 5 -14 4 -14 -13 -1 -17 14 -17 14 -7 -5 9
-18 7 -21 -9 -22 -12 -1 -17 3 -13 9 4 7 2 8 -5 4 -6 -4 -9 -12 -6 -17 4 -5 1
-17 -4 -26 -6 -10 -11 -14 -11 -9 0 5 -9 1 -20 -9 -14 -13 -20 -14 -20 -5 0 7
-3 10 -8 6 -4 -4 -7 -13 -7 -19 0 -7 -10 -13 -23 -15 -18 -3 -21 -7 -12 -16 8
-10 4 -12 -16 -8 -17 3 -25 1 -21 -6 4 -5 0 -12 -8 -16 -8 -3 -15 -12 -15 -20
0 -13 -5 -14 -27 -6 -25 9 -26 8 -10 -4 24 -19 21 -29 -5 -15 -18 10 -20 9
-15 -5 5 -13 1 -15 -18 -12 -18 3 -22 1 -18 -11 4 -11 2 -14 -6 -9 -7 5 -10 2
-9 -6 2 -7 -2 -12 -8 -11 -7 1 -10 -6 -7 -17 3 -11 0 -20 -6 -20 -6 0 -11 5
-11 10 0 6 -5 10 -12 10 -6 0 -8 -3 -5 -7 4 -3 0 -14 -9 -24 -9 -10 -14 -25
-11 -33 4 -11 0 -14 -14 -11 -17 4 -19 2 -9 -10 13 -16 8 -18 -25 -16 -15 2
-17 0 -6 -7 9 -7 10 -12 2 -16 -6 -4 -8 -12 -5 -18 4 -7 2 -8 -4 -4 -7 4 -20
2 -29 -3 -13 -7 -14 -10 -4 -11 15 0 6 -14 -10 -16 -5 -1 -13 -2 -19 -3 -5 0
-10 -5 -10 -11 0 -5 8 -7 18 -4 15 5 15 4 -1 -6 -15 -10 -21 -8 -33 7 -9 10
-12 12 -8 4 3 -7 0 -18 -7 -23 -11 -8 -10 -8 4 -4 12 4 17 2 14 -6 -2 -7 -12
-12 -21 -11 -10 0 -15 -1 -12 -4 3 -3 0 -15 -5 -26 -9 -16 -13 -17 -21 -6 -7
10 -7 8 -3 -8 5 -19 2 -23 -17 -23 -18 0 -20 -2 -8 -10 13 -8 13 -10 -2 -10
-9 0 -20 -5 -24 -12 -5 -8 -2 -9 11 -4 15 5 16 4 5 -8 -6 -9 -17 -14 -23 -13
-7 1 -11 -6 -11 -15 1 -11 -5 -15 -17 -13 -10 2 -22 -1 -25 -7 -4 -6 -3 -8 3
-5 6 4 13 1 16 -7 4 -9 -2 -12 -18 -11 -20 3 -23 -1 -19 -23 4 -22 3 -24 -11
-12 -14 12 -15 10 -5 -16 l10 -29 -20 25 -20 25 9 -27 c8 -20 7 -28 -4 -32 -9
-3 -12 0 -9 8 3 8 0 17 -7 22 -8 4 -10 3 -5 -5 4 -6 3 -18 -4 -26 -8 -10 -8
-15 1 -21 8 -5 9 -3 4 6 -5 9 -4 11 4 6 6 -4 9 -12 5 -17 -3 -5 -10 -6 -16 -3
-8 5 -9 -1 -5 -17 6 -23 5 -23 -8 -5 -8 11 -16 17 -16 13 -7 -37 -20 -67 -30
-67 -6 0 -7 -5 -4 -10 4 -6 3 -10 -2 -9 -4 1 -15 1 -23 0 -13 -1 -13 -2 0 -11
13 -8 13 -10 -2 -10 -12 0 -15 -5 -11 -17 6 -15 4 -16 -9 -5 -13 10 -18 10
-24 1 -4 -8 -3 -9 4 -5 7 4 12 1 12 -9 0 -9 -5 -13 -10 -10 -6 4 -10 -6 -10
-21 0 -25 -1 -26 -13 -10 -12 16 -13 15 -11 -12 1 -23 -2 -29 -12 -25 -9 3
-14 -1 -14 -12 0 -10 5 -13 12 -9 7 4 8 3 4 -4 -4 -6 -13 -9 -21 -6 -8 4 -12
11 -8 17 3 5 1 7 -5 4 -5 -4 -9 -18 -7 -32 1 -14 -1 -25 -6 -25 -4 0 -11 -9
-14 -20 -3 -11 -11 -20 -16 -20 -6 0 -7 6 -2 13 10 16 14 41 5 32 -4 -4 -7
-11 -7 -15 0 -5 -9 -16 -20 -25 -14 -10 -15 -13 -4 -9 20 6 34 -11 18 -22 -8
-5 -9 -3 -4 6 5 9 4 11 -4 6 -9 -6 -9 -11 -1 -21 10 -11 8 -13 -9 -10 -11 2
-24 -1 -27 -7 -4 -7 -2 -8 4 -4 7 4 12 3 12 -1 0 -5 -10 -13 -22 -18 -16 -7
-23 -18 -22 -37 1 -15 -3 -25 -8 -22 -4 3 -6 9 -3 14 3 5 2 11 -3 14 -4 2 -8
-6 -8 -20 0 -13 5 -24 11 -24 5 0 3 -4 -5 -9 -8 -6 -18 -7 -22 -5 -4 3 -8 0
-8 -6 0 -6 -5 -8 -10 -5 -10 6 -14 -7 -11 -32 1 -7 -3 -13 -10 -13 -6 0 -9 -8
-6 -20 3 -11 0 -23 -5 -27 -6 -3 -8 -1 -5 4 4 6 0 13 -8 17 -8 3 -14 0 -12 -7
1 -7 -7 -11 -18 -9 -16 2 -17 1 -5 -7 8 -5 17 -8 21 -5 4 2 10 1 13 -4 2 -4
-5 -9 -16 -9 -12 -1 -26 -7 -32 -14 -8 -9 -8 -10 1 -5 7 4 13 3 13 -2 0 -6 -7
-13 -16 -16 -9 -3 -14 -13 -11 -21 4 -9 1 -12 -9 -8 -7 3 -14 1 -14 -5 0 -6 5
-12 12 -14 7 -3 5 -7 -6 -11 -10 -4 -15 -3 -11 3 11 17 0 11 -18 -11 -18 -20
-18 -21 4 -14 19 6 20 5 8 -8 -8 -8 -18 -12 -23 -9 -5 3 -6 -3 -2 -13 6 -16 4
-16 -10 -4 -15 12 -16 12 -10 -8 4 -12 2 -24 -4 -28 -6 -3 -8 -10 -6 -14 3 -4
-1 -8 -9 -8 -8 0 -11 5 -8 11 4 8 2 8 -6 0 -7 -6 -13 -20 -14 -32 0 -11 -5
-18 -9 -16 -4 3 -8 -2 -8 -10 0 -22 -20 -20 -21 2 0 14 -2 14 -8 -3 -10 -25
-5 -36 14 -28 8 3 15 1 15 -5 0 -6 -11 -9 -25 -8 -22 3 -23 1 -13 -18 11 -20
10 -20 -7 -6 -10 8 -16 11 -13 5 11 -19 -11 -58 -28 -51 -13 5 -14 4 -6 -7 12
-14 7 -27 -10 -27 -5 0 -6 6 -2 13 4 6 3 8 -1 4 -8 -7 -15 -28 -17 -54 -1 -7
-5 -10 -9 -8 -11 8 -31 -23 -23 -36 5 -8 3 -9 -6 -4 -10 6 -12 3 -8 -13 3 -12
3 -21 -1 -20 -19 2 -31 -4 -31 -16 0 -7 -10 -24 -22 -37 -13 -14 -23 -31 -23
-39 0 -8 -7 -14 -16 -14 -11 1 -15 -5 -12 -17 3 -11 0 -19 -6 -19 -6 0 -10 -6
-8 -12 1 -8 -6 -12 -17 -10 -18 3 -18 2 -5 -14 7 -10 9 -15 4 -12 -6 4 -17 -8
-24 -25 -8 -18 -23 -40 -35 -50 -11 -10 -14 -16 -6 -12 8 4 6 -1 -5 -10 -11
-9 -19 -18 -17 -20 7 -13 1 -25 -10 -19 -8 5 -9 2 -5 -9 4 -10 0 -20 -9 -25
-8 -5 -16 -18 -17 -30 -1 -12 -5 -22 -9 -22 -4 0 -8 -7 -8 -15 0 -8 -8 -23
-17 -33 -10 -10 -20 -27 -21 -37 -2 -11 -8 -21 -13 -23 -5 -2 -9 -12 -9 -23 0
-10 -6 -19 -12 -19 -7 0 -14 -11 -14 -24 -1 -14 -12 -39 -25 -57 -13 -18 -16
-29 -8 -24 12 8 12 6 1 -8 -8 -9 -10 -22 -6 -29 6 -11 5 -11 -8 0 -14 11 -15
9 -13 -18 1 -16 -1 -27 -6 -24 -5 3 -10 0 -10 -5 -2 -12 -5 -26 -9 -38 -1 -5
-2 -12 -1 -17 1 -5 -6 -5 -16 -2 -14 6 -15 4 -6 -5 13 -13 6 -42 -9 -33 -6 4
-5 -4 2 -16 8 -15 8 -20 1 -16 -6 4 -12 2 -12 -3 -3 -21 -4 -26 -12 -38 -5 -7
-5 -13 -1 -13 4 0 -1 -7 -12 -16 -10 -8 -13 -13 -6 -9 13 7 17 -7 5 -19 -5 -4
-9 -12 -9 -17 -1 -5 -3 -11 -4 -14 -2 -5 -6 -18 -9 -31 0 -4 -8 0 -18 7 -15
13 -15 12 -3 -8 11 -17 11 -27 2 -48 -7 -15 -10 -31 -7 -36 4 -5 2 -9 -2 -9
-5 0 -14 -9 -21 -21 -8 -12 -9 -18 -3 -14 18 10 12 -7 -6 -22 -11 -8 -12 -11
-3 -7 13 7 13 5 2 -9 -8 -9 -12 -22 -10 -29 3 -7 -2 -19 -11 -26 -9 -8 -10
-11 -4 -7 9 4 11 1 7 -9 -3 -9 -11 -16 -16 -16 -6 0 -5 -6 2 -15 10 -12 9 -16
-3 -21 -9 -3 -13 -12 -10 -21 4 -11 2 -14 -5 -9 -8 4 -10 2 -6 -8 3 -8 0 -25
-7 -37 -6 -13 -13 -32 -14 -44 -1 -11 -3 -24 -4 -29 0 -5 -9 -2 -18 5 -16 12
-17 12 -7 -1 6 -8 14 -24 18 -34 6 -17 5 -17 -11 -5 -13 11 -15 11 -9 1 5 -8
1 -21 -10 -33 -9 -10 -12 -19 -6 -19 6 0 13 6 16 13 3 6 4 3 3 -8 -2 -11 -9
-19 -17 -17 -11 3 -11 0 0 -12 11 -14 7 -20 -11 -18 -4 1 -5 -8 -2 -19 4 -12
0 -25 -8 -30 -12 -7 -12 -9 1 -9 12 -1 11 -3 -3 -11 -13 -8 -15 -14 -7 -30 7
-11 7 -19 1 -19 -5 0 -11 6 -14 13 -3 6 -4 2 -4 -10 1 -12 4 -20 7 -18 4 2 7
-2 7 -10 0 -8 -4 -12 -9 -8 -6 3 -7 -8 -5 -25 4 -27 2 -30 -16 -27 -21 4 -22
4 -3 -10 11 -8 14 -15 8 -15 -7 0 -12 -7 -12 -16 0 -9 5 -12 12 -8 7 5 8 3 4
-5 -5 -7 -14 -10 -22 -7 -8 3 -14 1 -14 -4 0 -6 4 -10 8 -10 5 0 9 -7 9 -15 0
-8 -5 -15 -10 -15 -5 0 -7 -11 -5 -25 4 -18 1 -25 -11 -25 -9 0 -12 -3 -6 -8
6 -4 10 -13 9 -19 -1 -7 -2 -18 -3 -24 -1 -8 -7 -7 -18 2 -15 13 -15 12 -3 -8
12 -18 12 -24 -1 -39 -9 -11 -9 -15 -1 -10 15 9 15 1 2 -24 -8 -14 -6 -21 6
-28 15 -8 15 -10 0 -15 -9 -4 -16 -2 -16 3 0 6 -5 10 -10 10 -6 0 -5 -8 2 -19
7 -11 17 -17 23 -15 5 3 1 -2 -9 -10 -20 -16 -20 -16 0 -17 15 0 16 -2 4 -7
-16 -8 -20 -58 -6 -81 6 -9 5 -12 -2 -8 -6 5 -10 -8 -9 -35 2 -38 0 -43 -18
-40 l-20 4 20 -16 c11 -8 14 -16 8 -16 -7 0 -13 -5 -13 -11 0 -5 4 -8 8 -5 4
2 8 -4 8 -14 0 -10 -5 -16 -11 -13 -7 2 -11 -9 -11 -27 0 -16 2 -30 6 -30 3 0
6 -9 7 -20 1 -13 -2 -18 -10 -13 -7 4 -5 -2 3 -12 8 -10 10 -16 4 -12 -7 4
-14 0 -17 -8 -4 -10 -1 -12 11 -8 15 6 16 5 2 -12 -14 -17 -13 -18 2 -12 12 4
15 2 11 -8 -3 -8 -9 -13 -13 -10 -5 3 -12 0 -16 -6 -4 -8 -3 -9 4 -5 7 4 12 2
12 -4 0 -6 5 -8 13 -4 9 6 9 5 0 -8 -7 -8 -9 -19 -5 -23 4 -5 1 -5 -6 -1 -7 4
-10 11 -8 15 3 4 -1 8 -8 8 -9 0 -10 -6 -2 -23 6 -12 15 -20 20 -17 5 4 6 1 2
-5 -3 -5 0 -13 6 -15 10 -4 10 -6 1 -6 -7 -1 -13 -6 -13 -12 0 -5 5 -7 12 -3
7 4 8 3 4 -5 -4 -6 -13 -8 -19 -4 -7 4 -6 0 2 -10 16 -20 2 -23 -19 -5 -9 8
-8 5 1 -7 9 -11 14 -26 12 -32 -3 -7 3 -13 14 -14 16 0 16 -1 -2 -9 -11 -5
-15 -9 -8 -9 6 -1 9 -10 6 -23 -3 -17 -2 -19 5 -9 6 8 12 9 16 3 3 -5 -1 -13
-10 -16 -8 -3 -12 -10 -9 -16 4 -6 11 -7 17 -4 7 4 8 2 4 -5 -4 -6 -11 -9 -15
-6 -5 2 -6 -8 -4 -23 4 -21 2 -24 -6 -12 -6 8 -11 10 -11 4 0 -17 12 -25 25
-14 8 7 12 5 12 -5 0 -8 -7 -15 -14 -15 -8 0 -11 -5 -8 -10 4 -6 1 -18 -6 -26
-7 -8 -8 -14 -3 -13 23 4 35 -2 32 -18 -1 -10 1 -23 5 -29 4 -7 0 -11 -10 -10
-9 0 -18 -6 -20 -14 -4 -12 -3 -12 5 -1 12 17 21 3 26 -38 2 -17 -1 -28 -6
-25 -5 3 -7 12 -4 20 3 7 2 15 -2 18 -16 10 -10 -34 6 -46 9 -7 18 -22 20 -33
l4 -20 -17 20 c-9 11 -14 14 -10 8 14 -28 13 -54 0 -60 -8 -3 -12 -9 -9 -15 3
-5 12 -1 19 9 7 10 11 22 8 27 -4 5 -1 6 5 3 11 -8 5 -44 -12 -66 -7 -9 -7
-12 -1 -9 6 4 17 3 25 -3 12 -7 12 -9 -4 -9 -12 0 -16 -5 -12 -16 3 -9 6 -18
6 -20 0 -3 5 -2 10 1 6 3 10 2 10 -4 0 -5 -6 -12 -12 -14 -7 -3 -3 -6 9 -6 12
-1 24 -5 27 -10 3 -4 -7 -7 -22 -5 -15 2 -19 1 -8 -2 15 -5 16 -8 5 -15 -11
-7 -11 -9 4 -9 19 0 23 -15 5 -26 -6 -4 -8 -3 -5 3 3 5 0 10 -8 10 -11 0 -12
-3 -3 -14 6 -8 17 -12 24 -9 9 3 11 0 7 -11 -5 -12 -3 -14 7 -8 9 5 11 4 6 -4
-6 -9 -11 -9 -24 1 -14 12 -14 10 -3 -10 7 -12 17 -20 23 -16 7 4 8 3 4 -4 -4
-6 -12 -10 -19 -8 -7 1 -9 1 -4 -1 4 -3 4 -9 1 -15 -4 -5 4 -4 17 3 21 11 22
10 12 -3 -7 -8 -10 -18 -6 -22 11 -10 14 -48 4 -41 -5 3 -13 0 -17 -6 -4 -8
-3 -9 4 -5 7 4 12 2 12 -3 0 -6 8 -11 18 -12 14 0 14 -2 -3 -9 -11 -5 -14 -9
-7 -9 7 -1 10 -5 7 -11 -3 -5 0 -10 8 -10 7 0 14 -7 14 -15 0 -11 -4 -12 -14
-3 -11 8 -12 7 -7 -6 3 -9 10 -16 16 -16 5 0 6 -9 3 -20 -5 -14 -2 -20 9 -20
9 0 16 -4 16 -9 0 -6 -9 -8 -20 -6 -12 2 -18 0 -15 -6 4 -5 10 -7 15 -4 5 3
11 1 15 -5 4 -6 11 -7 17 -4 7 4 8 2 4 -5 -4 -6 -12 -9 -17 -6 -5 4 -9 2 -9
-3 0 -5 10 -12 22 -16 18 -4 20 -8 10 -18 -17 -17 -15 -28 5 -21 12 4 10 -1
-7 -17 -22 -20 -23 -22 -4 -16 16 5 20 2 21 -16 1 -51 3 -59 16 -53 6 4 1 -3
-12 -14 -13 -12 -18 -21 -13 -21 6 0 14 4 17 10 12 19 22 10 17 -15 -3 -16 0
-25 8 -25 8 0 11 -9 7 -25 -3 -18 1 -29 14 -36 10 -5 18 -15 16 -21 -1 -7 3
-12 10 -13 6 0 15 -3 19 -7 8 -8 -30 -2 -49 8 -6 3 2 -6 18 -21 18 -16 23 -24
13 -21 -10 3 -18 1 -18 -4 0 -6 10 -10 22 -10 17 0 19 -3 10 -12 -18 -18 -14
-32 5 -17 15 12 16 12 10 -3 -3 -10 -2 -18 3 -18 6 0 10 -5 10 -11 0 -7 7 -17
17 -24 13 -9 13 -14 3 -20 -7 -5 -11 -4 -8 1 3 5 -3 17 -14 27 -21 20 -23 10
-3 -17 8 -10 12 -23 9 -28 -3 -4 5 -12 17 -16 15 -6 19 -11 11 -16 -9 -5 -7
-15 9 -37 11 -16 24 -27 28 -25 10 7 7 -26 -4 -43 -5 -10 -4 -12 3 -7 7 4 12
2 12 -4 0 -6 5 -8 10 -5 6 3 10 1 10 -4 0 -6 -4 -11 -10 -11 -5 0 -10 -5 -10
-11 0 -5 5 -7 10 -4 9 6 14 -8 11 -27 -1 -8 15 -12 32 -9 4 0 7 -3 7 -9 0 -5
-5 -10 -12 -10 -6 0 -1 -9 12 -20 21 -18 20 -25 -4 -21 -5 1 -4 -4 2 -12 7 -8
9 -17 6 -20 -4 -4 3 -4 16 -2 19 4 20 2 8 -12 -9 -12 -9 -15 0 -9 7 4 12 2 12
-4 0 -6 5 -8 13 -4 9 6 9 5 1 -7 -9 -11 -9 -17 1 -26 7 -6 15 -10 17 -8 2 3 3
-9 2 -26 -2 -26 0 -28 14 -17 10 9 13 9 9 1 -4 -7 0 -17 10 -23 15 -9 14 -10
-7 -5 l-25 6 25 -15 c14 -9 20 -15 14 -16 -15 0 -13 -27 2 -27 7 0 11 4 8 8
-2 4 0 10 5 13 10 7 9 -20 -2 -30 -4 -4 -7 -12 -7 -18 0 -6 5 -4 10 4 8 13 11
13 22 1 10 -10 10 -12 1 -7 -7 4 -13 2 -13 -3 0 -6 5 -11 10 -11 6 0 10 -7 10
-15 0 -8 5 -15 10 -15 6 0 10 -9 10 -20 0 -11 7 -20 16 -20 8 0 12 -5 9 -10
-4 -6 -11 -8 -16 -5 -15 10 -10 -2 8 -16 11 -10 14 -10 9 -2 -4 8 -2 13 5 13
7 0 9 -10 6 -30 -4 -18 -2 -30 4 -30 6 0 7 5 4 10 -3 6 -1 10 4 10 6 0 11 -8
11 -18 0 -9 9 -23 20 -30 11 -7 20 -21 20 -32 0 -11 5 -20 10 -20 6 0 10 -9
10 -20 0 -18 10 -24 31 -22 4 1 5 -7 2 -17 -3 -13 2 -20 18 -24 19 -5 20 -8 9
-22 -11 -14 -11 -16 1 -13 8 2 13 -3 11 -10 -1 -8 2 -11 8 -7 7 4 14 -2 17
-14 3 -11 9 -18 14 -15 5 3 9 -2 9 -11 0 -9 7 -23 15 -31 11 -11 15 -12 15 -3
0 7 3 9 6 6 4 -4 1 -14 -6 -22 -7 -9 -9 -15 -4 -14 21 4 35 -2 29 -11 -3 -5 1
-10 11 -10 13 0 14 -3 4 -15 -10 -12 -8 -14 9 -10 12 2 19 0 16 -6 -4 -5 -1
-9 5 -9 6 0 9 -4 6 -9 -3 -5 1 -12 10 -15 8 -3 12 -10 9 -16 -3 -6 1 -7 10 -4
11 5 14 2 8 -12 -5 -14 -3 -16 11 -11 10 4 15 3 11 -3 -3 -6 -1 -10 4 -10 6 0
11 -5 11 -11 0 -5 -5 -7 -12 -3 -7 4 -8 3 -4 -4 4 -6 13 -9 21 -5 13 5 20 -7
16 -30 0 -4 3 -6 7 -5 12 4 102 -88 95 -96 -4 -3 1 -6 11 -6 9 0 14 -4 11 -10
-3 -5 0 -10 7 -10 7 0 23 -12 35 -27 13 -14 23 -23 23 -19 0 4 6 1 14 -6 8 -7
12 -16 9 -21 -2 -4 1 -7 8 -7 13 0 49 -38 49 -52 0 -5 4 -7 10 -3 5 3 19 -4
30 -15 18 -18 19 -24 9 -38 -11 -14 -11 -15 1 -5 16 15 44 18 36 4 -4 -5 7
-15 24 -23 17 -7 33 -21 36 -31 3 -9 10 -15 15 -12 5 4 9 1 9 -6 0 -7 3 -10 6
-6 3 3 19 -8 36 -23 17 -16 43 -35 58 -42 16 -7 26 -16 24 -20 -3 -4 0 -8 6
-8 6 0 8 -5 4 -12 -4 -7 -3 -8 4 -4 15 9 54 -12 46 -25 -3 -6 2 -9 12 -7 12 2
19 -3 18 -13 -1 -9 5 -16 12 -16 7 0 11 4 8 9 -4 5 3 4 15 -4 12 -7 21 -16 21
-20 0 -5 7 -8 15 -8 8 0 15 -5 15 -11 0 -5 5 -7 12 -3 7 5 9 2 6 -7 -4 -10 2
-15 19 -17 26 -2 56 -25 46 -35 -3 -4 4 -5 15 -2 11 2 23 -3 26 -11 3 -8 12
-14 21 -14 8 0 15 -4 15 -10 0 -5 5 -10 11 -10 7 0 18 -8 26 -17 10 -12 12
-13 8 -3 -6 13 -5 13 7 0 7 -8 20 -16 28 -18 8 -2 17 -7 20 -11 8 -10 64 -35
74 -32 5 1 4 -4 -2 -12 -10 -12 -8 -13 13 -9 15 2 25 0 25 -7 0 -6 9 -11 19
-11 11 0 21 -5 23 -11 2 -5 12 -12 23 -13 11 -2 19 -9 17 -16 -1 -6 2 -8 8 -5
6 4 20 -1 30 -10 16 -14 34 -22 63 -24 5 -1 5 -6 1 -13 -5 -8 -2 -9 9 -5 10 3
17 2 17 -4 0 -6 4 -7 10 -4 6 3 10 -4 11 -17 0 -22 1 -22 9 -3 5 11 9 14 9 8
1 -7 10 -13 21 -13 11 0 20 -5 20 -11 0 -5 4 -7 10 -4 5 3 10 1 10 -4 0 -6 7
-11 15 -11 8 0 15 -4 15 -10 0 -5 5 -10 11 -10 5 0 7 6 4 13 -4 6 -1 5 7 -4 7
-9 30 -24 50 -33 21 -10 35 -23 31 -29 -3 -6 -1 -7 6 -3 6 4 19 2 28 -6 14
-11 16 -11 8 1 -6 10 -4 12 4 7 7 -5 10 -14 8 -20 -4 -9 3 -11 20 -8 18 3 24
1 19 -7 -5 -7 2 -11 18 -11 35 0 56 -10 56 -26 0 -8 6 -14 13 -14 18 0 67 -24
67 -32 0 -5 9 -8 19 -8 11 0 27 -7 35 -16 9 -8 21 -12 28 -8 8 5 9 2 5 -9 -4
-12 -2 -14 10 -10 12 5 14 3 8 -8 -7 -11 -5 -11 10 1 16 14 17 13 11 -6 -4
-14 -2 -21 8 -21 9 0 13 4 10 9 -3 4 2 5 10 2 9 -3 13 -11 10 -16 -4 -6 3 -5
15 1 18 10 20 9 14 -6 -5 -12 -2 -15 10 -10 19 7 50 -20 41 -35 -4 -7 -2 -8 5
-4 6 4 9 13 5 19 -3 7 4 1 15 -12 16 -18 24 -21 35 -12 11 9 15 7 19 -10 5
-17 9 -19 26 -10 25 14 31 14 31 0 0 -5 -4 -8 -8 -5 -4 2 -9 -5 -9 -16 -2 -18
0 -18 10 -5 14 18 63 5 51 -14 -4 -8 -3 -9 4 -5 6 4 8 14 5 23 -6 15 -5 16 9
3 9 -8 14 -18 12 -22 -2 -3 6 -4 18 0 14 3 19 2 14 -6 -4 -7 -1 -12 9 -12 9 0
14 4 11 8 -2 4 4 8 14 8 10 0 16 -5 12 -11 -10 -16 -11 -36 -1 -29 5 3 7 10 4
15 -4 5 -1 9 4 9 6 0 11 -4 11 -10 0 -5 4 -10 10 -10 5 0 7 8 3 18 -5 14 -3
14 11 -3 10 -11 15 -14 11 -8 -4 8 -1 11 9 7 8 -3 12 -13 10 -22 -5 -15 -4
-15 9 0 8 10 16 16 18 13 3 -2 16 -6 29 -9 42 -9 86 -24 71 -25 -8 -1 -11 -4
-8 -7 4 -4 13 -1 22 6 12 10 15 10 15 0 0 -9 4 -9 16 1 15 12 16 11 9 -10 -6
-21 -5 -22 8 -10 8 8 12 18 9 23 -3 5 0 6 6 2 7 -4 12 -13 12 -20 0 -7 7 -13
15 -13 12 0 12 3 2 16 -10 12 -9 13 2 7 8 -5 17 -3 23 5 7 10 8 8 3 -8 -5 -17
-2 -21 12 -18 10 2 18 4 18 5 0 1 8 3 18 5 9 2 15 0 13 -4 -3 -4 4 -13 16 -20
11 -7 18 -8 14 -3 -3 5 6 14 21 21 24 11 25 10 13 -4 -11 -13 -10 -14 5 -8 15
5 17 3 12 -11 -4 -10 -3 -15 3 -11 6 3 10 16 10 28 0 17 2 19 9 8 5 -8 18 -12
30 -8 12 3 19 2 16 -3 -3 -4 2 -11 11 -14 8 -3 12 -2 9 4 -3 6 1 10 10 10 9 0
14 -4 11 -8 -2 -4 5 -9 17 -9 17 -2 19 0 7 7 -13 8 -12 10 3 10 9 0 17 -4 17
-9 0 -14 29 -21 36 -9 4 6 3 8 -4 4 -6 -3 -14 -1 -18 6 -4 7 -4 10 1 6 4 -4
14 -3 22 4 11 9 13 8 11 -2 -2 -8 2 -14 9 -15 6 0 15 -3 18 -7 4 -4 15 -3 24
1 9 5 19 9 24 10 4 1 8 1 10 2 24 7 40 4 51 -12 12 -18 14 -18 20 -4 3 9 3 22
0 28 -3 7 1 4 9 -6 10 -12 17 -14 22 -8 8 14 25 14 25 0 0 -5 -4 -7 -10 -4 -6
4 -7 -1 -3 -11 5 -14 8 -13 19 7 12 22 20 13 14 -16 -1 -5 9 0 22 13 27 24 38
28 38 11 0 -5 -4 -8 -8 -5 -5 3 -9 -2 -9 -11 0 -12 5 -11 19 7 10 12 18 17 18
11 0 -6 5 -11 11 -11 5 0 7 5 3 11 -4 7 -1 10 7 7 8 -3 13 -11 11 -17 -1 -7 2
-10 8 -6 6 3 8 11 5 16 -4 5 1 9 10 9 10 0 13 -5 9 -12 -4 -6 -3 -8 4 -4 5 3
13 0 15 -6 4 -10 6 -10 6 0 1 7 7 10 14 7 6 -4 1 3 -13 15 l-25 21 30 -14 c32
-14 60 -12 85 7 13 10 13 9 1 -7 -8 -10 -9 -17 -3 -17 6 0 13 4 16 9 3 5 15 7
26 4 11 -3 18 -9 15 -13 -3 -5 4 -6 14 -3 11 3 22 12 24 22 4 14 5 14 6 -1 0
-10 6 -18 11 -18 6 0 9 3 8 8 -2 4 2 7 7 7 6 0 9 -3 8 -7 -1 -3 5 -12 15 -19
9 -7 14 -9 10 -5 -4 5 -2 16 5 24 10 13 9 14 -3 7 -12 -6 -13 -6 -2 6 11 12
14 12 22 -1 5 -8 6 -18 4 -22 -3 -4 0 -8 6 -8 7 0 9 7 6 17 -4 10 -4 14 0 10
4 -4 14 -1 22 6 13 10 14 8 7 -12 -6 -21 -5 -22 8 -10 8 8 14 16 12 19 -2 3
10 6 25 6 16 1 31 -4 34 -12 3 -8 11 -14 18 -14 8 0 9 3 3 8 -19 13 -13 27 11
28 15 1 24 -4 24 -12 0 -8 5 -14 11 -14 6 0 8 7 5 16 -5 14 -4 15 8 5 11 -10
15 -8 20 6 3 10 4 6 2 -9 -2 -15 1 -25 5 -22 5 3 9 11 9 19 0 8 5 17 12 21 6
4 8 3 5 -2 -3 -6 3 -15 13 -21 15 -10 17 -9 13 10 -4 20 -3 20 12 -3 9 -14 14
-17 11 -8 -3 10 -1 20 4 23 9 6 14 -8 11 -28 -1 -5 3 -5 9 -2 6 4 9 12 7 19
-3 7 8 11 29 12 18 0 31 -3 28 -7 -2 -4 5 -7 16 -6 14 1 19 6 15 17 -5 12 -4
13 6 3 16 -16 43 -17 33 -2 -3 6 6 3 22 -7 l29 -18 -20 24 c-11 14 -13 19 -5
13 15 -14 34 -18 26 -5 -2 4 4 8 14 8 10 0 16 -4 13 -9 -3 -5 12 -7 34 -6 21
2 44 0 50 -4 6 -4 15 -2 19 4 5 8 3 9 -7 4 -11 -6 -11 -5 -2 5 9 10 15 9 29
-5 17 -16 18 -16 30 0 7 9 18 14 24 10 9 -6 9 -10 -1 -17 -11 -8 -11 -9 -1 -6
8 2 13 7 12 12 -2 13 21 25 36 19 7 -2 15 -12 17 -21 4 -15 5 -15 6 1 1 15 14
22 24 15 2 -2 10 2 18 8 8 6 25 10 39 9 14 -1 33 2 42 7 13 6 16 5 12 -5 -3
-8 4 -13 19 -13 19 0 23 4 19 20 -5 18 -4 18 10 5 9 -7 14 -17 11 -21 -2 -5
-2 -8 1 -8 3 0 12 12 20 28 8 15 15 21 16 14 0 -7 4 -11 9 -7 5 3 12 1 15 -4
4 -5 19 -3 38 6 28 14 56 22 96 25 6 1 12 6 12 12 0 6 5 4 10 -4 9 -13 11 -13
20 0 6 10 10 11 10 3 0 -7 7 -13 15 -13 8 0 15 5 15 11 0 5 -4 7 -10 4 -6 -3
-10 -2 -10 4 0 12 40 11 56 -1 7 -5 17 -1 25 9 13 16 12 17 -3 4 -12 -9 -18
-10 -18 -2 0 6 5 11 11 11 5 0 7 6 3 13 -4 6 1 4 11 -5 17 -16 19 -16 33 0 13
16 13 16 8 0 -3 -10 0 -20 6 -24 6 -4 8 -3 4 4 -3 6 -2 13 4 17 6 4 8 10 6 14
-3 4 11 5 30 3 29 -4 36 -1 41 17 3 11 9 18 14 15 5 -3 7 -9 4 -14 -3 -5 0
-12 6 -16 8 -5 9 -3 4 6 -6 10 -4 12 10 6 16 -6 16 -4 4 10 -13 16 -12 16 8 6
31 -17 40 -15 17 4 -10 8 -13 13 -6 9 6 -3 12 -1 12 6 0 7 7 4 16 -7 8 -10 13
-13 9 -6 -4 8 2 12 20 12 14 0 24 4 20 10 -3 5 -13 7 -23 4 -12 -4 -13 -3 -4
3 7 6 26 9 42 8 21 -1 30 3 30 14 0 9 3 12 8 6 4 -5 13 -11 20 -13 10 -2 11 4
6 20 -6 21 -6 21 10 5 23 -22 32 -22 15 0 -7 10 -9 15 -4 10 4 -4 17 0 27 10
17 15 18 15 18 -1 0 -9 -4 -14 -10 -11 -5 3 -10 2 -10 -4 0 -5 9 -9 19 -8 13
1 18 7 16 19 -4 20 22 38 44 30 9 -3 11 0 6 8 -6 10 -4 11 6 4 21 -13 38 -14
46 -2 3 7 1 8 -5 4 -7 -4 -12 -2 -12 5 0 7 11 10 30 7 23 -3 27 -2 19 8 -7 8
-6 14 2 20 7 4 9 3 6 -3 -11 -17 20 -23 33 -8 7 8 17 12 24 8 6 -3 8 -3 4 2
-4 4 -1 14 7 21 19 19 25 17 20 -7 -3 -12 -1 -18 3 -15 7 8 8 13 11 41 0 8 6
15 12 15 5 0 8 -4 5 -8 -3 -5 1 -9 9 -9 8 0 17 7 19 14 3 8 2 11 -3 8 -5 -3
-13 0 -17 6 -4 7 -3 9 4 5 6 -3 13 -2 17 4 4 6 11 8 16 4 5 -3 7 -9 4 -14 -3
-5 0 -12 7 -16 7 -4 10 -4 6 1 -9 10 9 45 23 45 6 0 7 -4 4 -10 -3 -5 -1 -10
5 -10 7 0 9 9 5 23 -7 22 -7 22 9 2 15 -20 15 -20 11 4 -4 23 -4 23 17 5 12
-11 18 -14 15 -7 -4 6 -4 13 0 16 5 2 2 2 -4 1 -7 -2 -13 1 -13 6 0 6 8 10 18
11 53 3 74 7 82 15 6 6 2 10 -9 10 -11 0 -18 -3 -15 -7 8 -13 -26 -3 -39 11
-10 12 -9 12 5 2 14 -11 19 -9 32 10 9 12 16 18 16 12 0 -5 9 -10 20 -11 14
-1 20 4 20 18 0 10 5 19 11 19 5 0 8 -4 5 -8 -3 -5 1 -9 9 -9 18 0 19 9 3 26
-11 10 -7 10 16 1 27 -10 28 -9 15 7 -8 9 -9 14 -2 10 6 -4 14 -3 18 3 3 5 16
10 28 10 21 1 21 1 -3 15 l-25 14 30 -2 c17 -1 29 3 28 9 -1 6 4 11 12 11 8 0
12 -4 9 -9 -3 -4 2 -5 11 -2 12 5 13 9 4 20 -10 12 -8 13 6 8 14 -6 16 -4 10
6 -6 10 -4 12 8 7 15 -6 21 2 19 23 0 3 8 6 18 6 10 0 16 -6 13 -13 -3 -7 -1
-13 5 -13 6 0 9 11 8 25 -2 13 1 22 5 19 5 -3 9 0 9 7 0 7 6 4 14 -7 14 -18
14 -18 12 7 -3 23 1 27 20 24 17 -1 21 2 19 16 -3 13 1 16 12 12 12 -5 14 -3
8 8 -4 8 -5 11 0 7 4 -4 15 0 24 10 9 10 26 17 38 16 16 -1 20 3 15 15 -5 14
-3 14 10 3 14 -11 16 -11 12 6 -3 10 2 25 12 33 11 9 15 9 10 2 -4 -7 -2 -13
3 -13 6 0 11 5 11 11 0 5 4 8 9 5 5 -4 7 4 5 16 -2 13 -1 17 2 10 5 -10 9 -10
20 -1 8 6 14 17 14 23 0 6 -5 4 -11 -4 -8 -12 -10 -12 -7 -1 2 8 14 16 27 18
13 2 31 8 40 14 13 8 11 9 -9 5 -14 -3 -19 -3 -12 0 6 3 10 9 7 14 -3 4 5 6
17 2 18 -4 20 -2 14 14 -4 10 -4 15 0 11 4 -4 14 -1 23 5 13 10 14 10 4 -2
-16 -17 -17 -30 -2 -30 5 0 8 4 5 9 -3 5 1 14 10 21 8 7 13 19 10 26 -3 8 2
11 15 9 15 -3 19 0 15 11 -5 12 -1 14 17 8 l22 -7 -20 24 c-11 13 -13 19 -5
13 18 -13 52 -15 44 -2 -3 5 -10 5 -16 2 -7 -5 -8 -2 -4 5 5 7 14 10 21 7 18
-7 59 39 49 56 -6 10 -4 10 9 -1 15 -12 17 -12 11 4 -5 13 -4 16 4 11 7 -4 12
-3 12 3 0 6 8 8 18 5 16 -5 16 -5 0 6 -10 6 -18 16 -18 23 0 8 3 8 8 2 4 -5
13 -11 21 -13 12 -3 12 -1 0 14 -9 12 -9 15 -1 10 7 -4 12 -2 12 4 0 6 4 9 10
5 5 -3 7 -13 4 -23 -5 -13 -4 -14 4 -3 5 7 7 23 5 35 -4 17 -3 18 6 6 9 -13
11 -13 12 3 3 31 4 35 13 44 5 4 6 3 3 -3 -4 -7 0 -15 9 -18 8 -3 13 -2 9 3
-3 5 1 12 7 14 10 4 10 6 0 6 -7 1 -10 6 -7 11 5 8 11 8 20 0 9 -8 12 -5 10
14 -3 20 1 24 21 21 15 -1 21 2 17 9 -11 17 -12 37 -2 30 5 -3 6 -11 2 -17 -5
-8 -2 -8 9 0 8 7 18 9 23 5 4 -4 2 4 -5 17 -6 13 -7 21 -2 17 6 -3 14 -1 17 5
4 5 14 8 22 5 8 -3 12 -2 8 3 -7 13 5 42 16 35 5 -3 9 0 9 6 0 6 4 8 10 5 6
-4 7 1 3 11 -4 11 -3 15 5 10 6 -3 13 3 17 14 3 11 13 20 21 20 8 0 12 4 9 10
-3 5 -1 10 5 10 6 0 8 6 4 13 -4 6 -3 9 1 4 5 -4 15 5 22 20 7 16 11 21 9 13
-2 -11 3 -16 18 -17 11 0 15 1 9 4 -19 7 -16 23 5 23 14 0 15 2 2 10 -13 8
-12 10 3 10 11 0 15 5 11 11 -4 8 1 9 17 4 19 -5 21 -4 9 5 -13 9 -13 12 3 21
9 6 15 14 12 19 -3 5 0 12 6 16 8 4 9 3 5 -4 -5 -8 -2 -10 8 -6 9 3 15 9 14
12 -2 22 3 45 10 37 10 -14 32 -17 32 -5 0 5 -4 10 -10 10 -5 0 -10 5 -10 11
0 6 7 8 16 5 14 -5 15 -4 4 9 -17 21 -5 19 16 -3 17 -16 18 -16 10 3 -18 45
-18 49 -4 31 14 -18 15 -18 26 12 6 16 7 33 4 37 -4 3 1 3 10 0 11 -4 17 1 22
19 3 14 11 26 17 26 6 0 7 6 4 13 -4 6 1 3 10 -8 16 -19 16 -19 11 7 -3 17 0
27 7 25 6 -1 11 4 12 12 0 8 9 17 20 21 19 7 19 7 0 19 -20 11 -20 11 0 9 12
-2 20 3 20 12 1 8 6 14 13 12 7 -1 11 1 11 5 -3 20 2 34 11 28 6 -4 9 4 7 17
-1 17 3 23 16 22 14 -2 15 1 6 12 -9 11 -8 15 5 20 10 4 15 13 11 22 -4 12 -3
12 8 3 12 -9 13 -7 9 14 -3 16 0 25 9 25 7 0 9 3 6 7 -4 3 1 12 11 20 9 8 10
11 3 7 -16 -8 23 51 39 61 6 4 10 11 10 18 0 6 -7 2 -15 -9 -8 -10 -15 -14
-15 -8 0 18 28 37 42 28 10 -6 10 -5 2 7 -13 16 -15 51 -2 43 4 -3 8 5 8 16 0
16 4 20 16 16 15 -6 15 -4 3 11 -12 15 -12 16 5 10 16 -6 17 -5 6 8 -10 12
-10 19 -2 27 7 7 12 20 12 30 0 10 5 18 11 18 5 0 7 5 4 10 -3 6 1 13 10 16
13 5 13 9 3 22 -10 12 -10 14 0 8 8 -5 12 0 12 13 0 12 5 21 11 21 5 0 7 4 4
10 -3 5 -1 19 5 31 7 11 14 33 16 47 3 15 10 32 16 39 6 7 8 19 5 27 -4 10 -1
13 8 10 10 -4 13 0 10 15 -2 11 1 23 6 26 5 4 7 10 4 15 -3 5 -1 11 4 15 6 3
7 13 4 22 -5 12 -3 14 7 8 10 -6 12 -4 7 9 -6 14 -3 17 10 12 15 -5 15 -4 -1
9 -12 9 -15 15 -7 15 7 0 11 6 8 14 -3 8 2 17 11 21 14 5 14 7 2 15 -10 7 -11
10 -2 10 6 0 11 3 11 8 -3 16 14 72 22 72 5 0 5 8 2 18 -6 15 -5 16 13 2 18
-14 19 -14 1 6 -15 18 -15 22 -4 27 9 3 13 16 12 31 -2 15 3 33 12 41 9 10 10
15 2 15 -9 0 -9 3 0 14 12 14 20 44 25 94 2 13 7 27 12 30 5 4 9 17 8 29 -1
13 3 23 9 23 6 0 7 3 4 7 -4 3 -1 13 6 21 9 13 9 14 0 8 -7 -4 -13 -3 -13 3 0
5 8 15 18 20 9 6 12 11 5 11 -7 0 -10 7 -7 15 4 8 11 12 18 8 6 -4 5 1 -3 10
-9 12 -10 17 -2 17 7 0 9 5 6 10 -3 6 0 10 7 10 9 0 9 3 -2 10 -12 7 -12 10
-1 10 7 0 11 6 7 15 -3 8 -1 15 5 15 6 0 7 5 4 10 -4 6 -1 18 7 27 11 14 11
16 -2 8 -13 -7 -13 -6 -2 7 7 9 12 25 10 35 -2 11 2 17 11 15 12 -3 12 0 1 12
-10 13 -10 16 0 16 8 0 10 3 7 7 -4 3 -1 13 6 21 9 13 9 14 0 8 -7 -4 -13 -2
-13 3 0 6 4 11 9 11 6 0 8 9 6 20 -2 11 1 22 6 25 5 4 7 11 3 16 -3 5 0 16 6
24 10 12 10 15 1 15 -8 0 -6 6 4 16 13 14 14 19 3 25 -11 7 -11 9 1 9 8 0 11
6 7 15 -3 9 1 18 9 21 8 4 12 10 9 15 -3 5 -11 6 -17 2 -7 -3 -3 4 8 16 15 18
17 24 6 31 -10 6 -8 10 9 15 18 6 20 9 9 16 -12 8 -12 11 1 19 13 9 13 10 0
10 -13 0 -13 1 0 10 13 9 13 10 0 10 -10 0 -11 3 -3 8 10 6 15 34 22 105 1 5
7 5 14 1 8 -5 8 -2 -2 9 -8 11 -9 17 -3 17 6 0 9 7 6 15 -4 8 -1 22 6 30 10
12 10 15 -1 15 -9 0 -10 3 -3 8 6 4 10 17 9 30 -1 12 1 22 5 22 4 0 6 11 5 25
-2 14 1 27 6 31 5 3 5 13 -1 25 -12 22 -1 25 20 6 12 -10 12 -9 0 6 -11 15
-11 20 -1 27 11 6 11 8 0 12 -12 4 -12 7 0 21 10 13 10 17 1 17 -9 0 -9 4 -3
13 6 6 9 20 7 30 -2 13 2 17 12 13 10 -4 12 -2 7 7 -11 17 -10 106 1 100 5 -3
7 6 4 21 -4 19 -1 26 11 26 10 0 12 3 5 8 -14 9 -15 43 -1 60 6 8 6 12 -2 12
-9 0 -9 5 -1 20 6 12 8 30 5 40 -4 13 -2 20 7 20 11 0 11 2 0 9 -11 6 -10 10
4 15 13 5 14 10 6 18 -8 8 -8 17 -1 30 6 12 6 18 0 18 -6 0 -8 7 -5 15 4 8 11
12 17 8 6 -4 7 -1 1 8 -14 24 -16 51 -2 43 9 -5 9 -2 -1 9 -9 12 -10 17 -2 17
9 0 9 5 1 20 -6 11 -7 20 -3 20 4 0 7 21 6 47 -1 28 3 51 10 55 9 6 8 8 -3 8
-13 0 -13 1 0 10 12 8 12 10 1 10 -11 0 -11 3 0 17 12 15 12 16 -1 8 -13 -8
-13 -7 -1 8 13 16 8 22 -14 17 -5 -1 1 10 15 25 13 14 18 23 9 20 -10 -4 -15
1 -15 15 0 14 5 19 16 15 11 -4 11 -2 -2 8 -14 11 -15 16 -5 27 9 10 9 11 0 6
-16 -9 -17 10 -3 19 7 4 8 11 1 18 -5 7 -8 31 -8 55 1 23 0 42 -3 42 -8 0 -5
44 3 57 4 7 -1 16 -10 22 -10 6 -13 11 -7 11 11 0 16 30 4 30 -6 0 -13 56 -13
98 1 12 -4 22 -11 22 -6 0 -4 5 4 10 10 6 11 10 3 10 -8 0 -13 13 -13 33 0 17
-4 39 -10 47 -6 9 -5 17 1 21 7 4 5 12 -5 21 -8 9 -12 18 -9 22 3 3 0 13 -8
23 -12 15 -12 16 1 8 13 -7 13 -6 2 7 -7 9 -14 30 -15 47 -1 17 -5 31 -8 31
-3 0 -6 6 -7 13 -3 35 -8 53 -15 58 -4 3 -9 17 -11 30 -1 13 -10 39 -20 58
-12 23 -14 31 -4 26 7 -3 5 0 -4 7 -15 13 -15 15 0 26 15 10 15 11 -2 5 -13
-4 -17 -3 -12 5 4 7 2 12 -4 12 -6 0 -8 5 -5 10 3 6 2 10 -4 10 -6 0 -8 7 -5
15 4 9 0 15 -7 15 -12 0 -12 2 -1 9 11 6 10 10 -3 15 -10 3 -15 12 -12 20 3 8
1 16 -4 18 -5 2 -11 13 -12 26 0 12 -5 22 -10 22 -5 0 -4 6 2 14 9 11 8 14 -5
12 -11 0 -18 7 -19 22 -1 13 -8 27 -15 32 -7 4 -10 17 -7 29 3 12 2 19 -3 16
-4 -2 -15 13 -25 35 -10 22 -22 37 -26 34 -5 -3 -4 7 1 21 7 17 7 24 0 20 -6
-3 -10 1 -10 9 0 9 -5 16 -11 16 -5 0 -7 5 -4 10 3 6 1 10 -5 10 -6 0 -8 5 -5
10 3 6 1 10 -5 10 -6 0 -9 4 -6 9 3 4 -3 19 -14 31 -21 24 -27 46 -11 35 5 -3
13 0 17 6 4 8 3 9 -4 5 -10 -6 -16 4 -14 25 1 3 -6 6 -14 6 -17 0 -19 -13 -1
-20 9 -4 9 -6 0 -6 -19 -2 -26 19 -11 36 9 12 9 15 1 9 -9 -5 -13 -1 -13 10 0
9 -8 23 -17 31 -12 10 -13 12 -3 8 10 -4 10 -2 -2 8 -10 7 -22 26 -28 41 -6
17 -14 24 -22 20 -7 -4 -8 -3 -4 5 6 8 12 9 20 2 9 -8 13 -7 13 4 0 7 -3 14
-6 13 -3 0 -13 0 -21 1 -13 1 -13 2 0 11 13 8 13 10 -2 10 -9 0 -20 5 -24 12
-4 6 -3 8 2 5 5 -3 10 3 10 13 0 14 -3 16 -13 8 -9 -7 -15 -6 -19 7 -4 10 -1
21 7 26 11 7 9 9 -7 9 -19 0 -22 5 -20 39 1 27 -3 37 -11 34 -7 -3 -10 -10 -6
-17 3 -6 2 -8 -2 -3 -5 4 -10 17 -12 29 -2 11 -15 32 -29 46 -13 14 -23 31
-20 39 3 8 -2 13 -12 13 -16 1 -16 1 1 11 9 5 17 15 17 22 0 7 -4 6 -10 -3 -9
-13 -11 -13 -19 0 -5 8 -7 18 -5 22 3 4 0 8 -5 8 -6 0 -11 7 -11 16 0 8 -4 12
-10 9 -14 -9 -12 8 3 24 6 8 8 12 2 9 -5 -3 -20 5 -33 18 -14 15 -18 24 -10
24 7 1 2 8 -12 16 -18 11 -20 14 -5 10 18 -6 19 -5 3 7 -14 11 -15 16 -5 26 9
10 8 11 -5 6 -21 -8 -43 35 -24 47 7 5 7 8 1 8 -6 0 -16 -5 -22 -11 -9 -9 -10
-6 -6 11 5 18 3 21 -8 15 -11 -7 -11 -5 1 10 8 10 10 16 3 12 -7 -4 -16 4 -24
22 -7 16 -17 27 -23 24 -5 -3 -6 -1 -2 5 3 6 0 17 -8 25 -8 7 -16 25 -18 38
-2 17 -8 23 -22 21 -18 -3 -18 -2 -5 14 7 10 9 15 4 12 -6 -4 -17 2 -24 14 -8
13 -9 18 -1 13 7 -5 7 0 -1 13 -10 16 -16 18 -26 10 -8 -6 -16 -8 -20 -4 -3 3
-2 6 4 6 6 0 14 7 17 16 3 8 2 13 -3 10 -5 -3 -15 2 -22 11 -8 10 -9 14 -2 10
6 -4 15 -3 18 3 4 6 3 10 -2 9 -22 -4 -32 2 -27 16 5 11 2 13 -12 8 -13 -5
-15 -3 -8 8 12 20 14 40 3 33 -5 -3 -7 -9 -5 -13 3 -4 -1 -8 -8 -8 -13 0 -14
34 -1 59 3 7 -1 4 -9 -6 -15 -18 -21 -15 -17 8 1 5 -5 6 -14 2 -13 -5 -14 -2
-4 15 9 17 7 21 -10 26 -12 3 -21 10 -21 15 0 5 -6 6 -12 2 -9 -5 -9 -2 1 9 8
11 9 17 3 17 -6 0 -9 8 -5 18 5 15 4 14 -9 -2 -14 -17 -15 -17 -21 -2 -4 10
-3 15 3 11 6 -3 10 -1 10 4 0 6 -7 11 -15 11 -13 0 -20 19 -16 43 1 5 -3 6 -9
2 -6 -3 -7 -11 -4 -17 4 -7 2 -8 -5 -4 -6 4 -9 12 -6 17 4 5 1 9 -4 9 -6 0
-10 3 -10 8 3 20 -2 25 -12 12 -8 -12 -9 -10 -4 8 4 14 2 22 -5 22 -7 0 -9 7
-6 16 5 14 4 15 -9 4 -13 -11 -14 -10 -9 5 5 13 4 16 -4 11 -8 -4 -12 0 -12
11 0 10 -11 27 -25 37 -13 10 -22 23 -18 29 4 6 0 8 -11 4 -10 -4 -15 -3 -11
3 3 6 1 10 -5 10 -7 0 -9 7 -6 16 3 8 2 12 -4 9 -6 -3 -10 -1 -10 4 0 6 -8 11
-17 12 -15 0 -15 2 2 9 11 5 14 9 6 9 -13 1 -81 64 -81 75 0 2 -20 25 -45 51
-25 25 -43 50 -40 56 4 5 -3 9 -14 9 -11 0 -22 9 -26 20 -3 11 -13 20 -22 20
-13 0 -14 2 -2 17 10 11 10 14 2 9 -7 -4 -13 -2 -13 3 0 6 -3 10 -7 10 -17 -3
-33 1 -32 9 3 20 -2 32 -13 30 -7 -2 -12 3 -10 10 1 6 -3 12 -9 12 -5 0 -7 4
-4 10 3 6 -1 7 -9 4 -11 -4 -16 0 -16 11 0 9 -4 13 -10 10 -5 -3 -10 2 -10 11
0 10 -2 15 -5 12 -8 -8 -75 56 -75 72 0 7 -3 11 -6 8 -3 -3 -19 7 -36 23 -17
15 -35 26 -40 23 -4 -3 -5 3 -1 12 3 10 2 15 -3 12 -5 -3 -14 0 -21 7 -10 11
-10 15 0 18 11 5 -18 11 -36 8 -5 -1 -6 3 -3 8 3 5 -1 12 -10 15 -8 3 -12 11
-8 17 4 7 3 9 -3 6 -6 -4 -29 11 -52 33 -23 22 -44 40 -47 40 -2 0 -18 14 -36
30 -17 17 -35 30 -41 30 -5 0 -6 7 -3 16 3 8 2 12 -4 9 -6 -3 -10 -1 -10 4 0
6 -6 10 -12 8 -7 -1 -12 5 -10 13 2 8 0 12 -4 8 -4 -4 -13 -3 -21 3 -7 6 -13
9 -13 5 0 -3 -16 11 -36 31 -20 21 -33 31 -29 23 5 -8 -1 -6 -12 5 -11 11 -19
23 -16 27 2 4 -3 5 -11 2 -9 -4 -18 1 -22 10 -3 9 -11 16 -18 16 -6 0 -18 9
-26 19 -7 11 -18 17 -24 14 -6 -4 -7 1 -2 13 6 15 5 16 -5 7 -10 -10 -18 -6
-39 16 -15 15 -39 31 -54 35 -14 3 -26 13 -26 22 0 8 -5 12 -10 9 -6 -3 -13 1
-16 10 -6 13 -8 14 -15 3 -7 -10 -9 -9 -9 4 0 9 -5 20 -12 24 -7 5 -9 2 -4 -7
4 -8 1 -6 -7 3 -8 10 -17 15 -20 11 -4 -3 -7 0 -7 7 0 7 -3 11 -6 7 -9 -9 -44
26 -37 37 4 6 0 5 -9 -2 -14 -11 -18 -10 -28 7 -6 12 -14 20 -18 19 -10 -2
-62 24 -62 32 0 4 -7 7 -15 8 -8 1 -22 3 -30 4 -8 1 -15 4 -15 7 0 4 -12 8
-26 9 -34 3 -46 11 -38 25 3 7 0 5 -8 -4 -10 -13 -17 -14 -33 -5 -11 6 -22 13
-25 16 -6 6 -27 11 -52 13 -10 1 -18 4 -18 7 0 3 -10 6 -22 7 -11 1 -24 7 -28
14 -6 8 -9 8 -13 -2 -4 -9 -6 -10 -6 -2 -1 8 -8 10 -18 6 -16 -6 -17 -5 -3 13
14 19 14 19 -8 0 -12 -11 -22 -14 -22 -8 0 6 -13 9 -30 7 -16 -2 -30 0 -30 4
0 5 -18 8 -39 7 -22 -1 -38 1 -35 5 2 4 0 10 -6 14 -5 3 -10 1 -10 -6 0 -8 -4
-8 -15 1 -8 7 -15 8 -15 3 0 -5 -16 -8 -35 -8 -19 0 -35 3 -35 7 0 3 -14 4
-31 1 -23 -3 -29 -1 -24 8 6 8 4 10 -6 3 -8 -4 -22 -10 -31 -11 -10 -2 -21 -3
-25 -4 -26 -4 -43 2 -37 14 6 9 4 9 -7 1 -8 -6 -22 -10 -31 -9 -10 2 -18 -1
-18 -7 0 -7 -4 -7 -12 0 -7 5 -33 8 -57 6 -29 -3 -47 0 -53 8 -5 9 -8 8 -8 -6z
m-3450 -1160 c0 -3 -4 -8 -10 -11 -5 -3 -10 -1 -10 4 0 6 5 11 10 11 6 0 10
-2 10 -4z m-86 -87 c-3 -5 -10 -7 -15 -3 -5 3 -7 10 -3 15 3 5 10 7 15 3 5 -3
7 -10 3 -15z m-744 -909 c0 -5 -5 -10 -11 -10 -5 0 -7 5 -4 10 3 6 8 10 11 10
2 0 4 -4 4 -10z m-150 -246 c0 -8 -19 -13 -24 -6 -3 5 1 9 9 9 8 0 15 -2 15
-3z m-1216 -2930 c3 -8 2 -12 -4 -9 -6 3 -10 10 -10 16 0 14 7 11 14 -7z m20
-512 c3 -5 -1 -9 -9 -9 -8 0 -12 4 -9 9 3 4 7 8 9 8 2 0 6 -4 9 -8z m127 -715
c-10 -9 -11 -8 -5 6 3 10 9 15 12 12 3 -3 0 -11 -7 -18z m206 -563 c-3 -3 -12
-4 -19 -1 -8 3 -5 6 6 6 11 1 17 -2 13 -5z m13 -44 c0 -5 -2 -10 -4 -10 -3 0
-8 5 -11 10 -3 6 -1 10 4 10 6 0 11 -4 11 -10z m7460 -1463 c0 -2 -9 -12 -19
-21 -15 -14 -21 -15 -27 -4 -4 7 -4 10 1 6 4 -4 14 -1 22 7 14 14 23 19 23 12z
m-1140 -801 c0 -3 -4 -8 -10 -11 -5 -3 -10 -1 -10 4 0 6 5 11 10 11 6 0 10 -2
10 -4z m-3510 -216 c0 -5 -2 -10 -4 -10 -3 0 -8 5 -11 10 -3 6 -1 10 4 10 6 0
11 -4 11 -10z m960 -174 c0 -3 -4 -8 -10 -11 -5 -3 -10 -1 -10 4 0 6 5 11 10
11 6 0 10 -2 10 -4z"/>
<path d="M5375 10180 c3 -5 8 -10 11 -10 2 0 4 5 4 10 0 6 -5 10 -11 10 -5 0
-7 -4 -4 -10z"/>
<path d="M4510 10016 c0 -2 8 -10 18 -17 15 -13 16 -12 3 4 -13 16 -21 21 -21
13z"/>
<path d="M4035 9920 c-3 -5 -1 -10 4 -10 6 0 11 5 11 10 0 6 -2 10 -4 10 -3 0
-8 -4 -11 -10z"/>
<path d="M7667 9919 c7 -7 15 -10 18 -7 3 3 -2 9 -12 12 -14 6 -15 5 -6 -5z"/>
<path d="M7826 9798 c3 -5 10 -6 15 -3 13 9 11 12 -6 12 -8 0 -12 -4 -9 -9z"/>
<path d="M2840 9320 c-9 -6 -10 -10 -3 -10 6 0 15 5 18 10 8 12 4 12 -15 0z"/>
<path d="M2940 9310 c-8 -5 -12 -11 -10 -14 3 -2 14 2 24 10 22 15 10 19 -14
4z"/>
<path d="M8510 9126 c0 -2 7 -7 16 -10 8 -3 12 -2 9 4 -6 10 -25 14 -25 6z"/>
<path d="M2545 8960 c-3 -6 1 -7 9 -4 18 7 21 14 7 14 -6 0 -13 -4 -16 -10z"/>
<path d="M8630 8926 c0 -2 7 -7 16 -10 8 -3 12 -2 9 4 -6 10 -25 14 -25 6z"/>
<path d="M8719 8833 c-13 -16 -12 -17 4 -4 9 7 17 15 17 17 0 8 -8 3 -21 -13z"/>
<path d="M2276 8727 c3 -10 9 -15 12 -12 3 3 0 11 -7 18 -10 9 -11 8 -5 -6z"/>
<path d="M2160 8500 c-9 -6 -10 -10 -3 -10 6 0 15 5 18 10 8 12 4 12 -15 0z"/>
<path d="M2035 8441 c-3 -5 -2 -12 3 -15 5 -3 9 1 9 9 0 17 -3 19 -12 6z"/>
<path d="M9033 8395 c0 -8 4 -12 9 -9 5 3 6 10 3 15 -9 13 -12 11 -12 -6z"/>
<path d="M2035 8350 c-3 -6 1 -7 9 -4 18 7 21 14 7 14 -6 0 -13 -4 -16 -10z"/>
<path d="M1956 8327 c3 -10 9 -15 12 -12 3 3 0 11 -7 18 -10 9 -11 8 -5 -6z"/>
<path d="M1756 8287 c3 -10 9 -15 12 -12 3 3 0 11 -7 18 -10 9 -11 8 -5 -6z"/>
<path d="M9109 8283 c-13 -16 -12 -17 4 -4 16 13 21 21 13 21 -2 0 -10 -8 -17
-17z"/>
<path d="M1635 8091 c-3 -5 -2 -12 3 -15 5 -3 9 1 9 9 0 17 -3 19 -12 6z"/>
<path d="M1850 8081 c0 -6 4 -13 10 -16 6 -3 7 1 4 9 -7 18 -14 21 -14 7z"/>
<path d="M1796 8027 c3 -10 9 -15 12 -12 3 3 0 11 -7 18 -10 9 -11 8 -5 -6z"/>
<path d="M1559 7953 c-13 -16 -12 -17 4 -4 16 13 21 21 13 21 -2 0 -10 -8 -17
-17z"/>
<path d="M1596 7793 c-6 -14 -5 -15 5 -6 7 7 10 15 7 18 -3 3 -9 -2 -12 -12z"/>
<path d="M9340 7785 c0 -2 6 -8 13 -14 10 -8 14 -7 14 2 0 8 -6 14 -14 14 -7
0 -13 -1 -13 -2z"/>
<path d="M9510 7479 c0 -5 5 -7 10 -4 6 3 10 8 10 11 0 2 -4 4 -10 4 -5 0 -10
-5 -10 -11z"/>
<path d="M9700 7486 c0 -2 8 -10 18 -17 15 -13 16 -12 3 4 -13 16 -21 21 -21
13z"/>
<path d="M9535 7460 c3 -5 8 -10 11 -10 2 0 4 5 4 10 0 6 -5 10 -11 10 -5 0
-7 -4 -4 -10z"/>
<path d="M9630 7401 c0 -6 4 -13 10 -16 6 -3 7 1 4 9 -7 18 -14 21 -14 7z"/>
<path d="M1265 7320 c-3 -6 1 -7 9 -4 18 7 21 14 7 14 -6 0 -13 -4 -16 -10z"/>
<path d="M9716 7207 c3 -10 9 -15 12 -12 3 3 0 11 -7 18 -10 9 -11 8 -5 -6z"/>
<path d="M9670 7161 c0 -6 4 -13 10 -16 6 -3 7 1 4 9 -7 18 -14 21 -14 7z"/>
<path d="M9750 7161 c0 -6 4 -13 10 -16 6 -3 7 1 4 9 -7 18 -14 21 -14 7z"/>
<path d="M9835 6849 c-4 -6 -5 -12 -2 -15 2 -3 7 2 10 11 7 17 1 20 -8 4z"/>
<path d="M10065 6040 c-3 -6 1 -7 9 -4 18 7 21 14 7 14 -6 0 -13 -4 -16 -10z"/>
<path d="M10034 5206 c1 -8 5 -18 8 -22 4 -3 5 1 4 10 -1 8 -5 18 -8 22 -4 3
-5 -1 -4 -10z"/>
<path d="M546 5177 c3 -10 9 -15 12 -12 3 3 0 11 -7 18 -10 9 -11 8 -5 -6z"/>
<path d="M536 5122 c-3 -5 1 -9 9 -9 8 0 12 4 9 9 -3 4 -7 8 -9 8 -2 0 -6 -4
-9 -8z"/>
<path d="M544 5086 c1 -8 5 -18 8 -22 4 -3 5 1 4 10 -1 8 -5 18 -8 22 -4 3 -5
-1 -4 -10z"/>
<path d="M506 4722 c-3 -5 1 -9 9 -9 8 0 15 4 15 9 0 4 -4 8 -9 8 -6 0 -12 -4
-15 -8z"/>
<path d="M515 4540 c3 -5 8 -10 11 -10 2 0 4 5 4 10 0 6 -5 10 -11 10 -5 0 -7
-4 -4 -10z"/>
<path d="M543 4395 c0 -8 4 -12 9 -9 4 3 8 9 8 15 0 5 -4 9 -8 9 -5 0 -9 -7
-9 -15z"/>
<path d="M9927 4399 c7 -7 15 -10 18 -7 3 3 -2 9 -12 12 -14 6 -15 5 -6 -5z"/>
<path d="M9833 3965 c0 -8 4 -12 9 -9 5 3 6 10 3 15 -9 13 -12 11 -12 -6z"/>
<path d="M630 3879 c0 -5 5 -7 10 -4 6 3 10 8 10 11 0 2 -4 4 -10 4 -5 0 -10
-5 -10 -11z"/>
<path d="M597 3773 c-10 -9 -9 -23 1 -23 5 0 9 7 9 15 0 17 -1 18 -10 8z"/>
<path d="M705 3630 c-3 -6 1 -7 9 -4 18 7 21 14 7 14 -6 0 -13 -4 -16 -10z"/>
<path d="M670 3521 c0 -6 4 -13 10 -16 6 -3 7 1 4 9 -7 18 -14 21 -14 7z"/>
<path d="M590 3416 c0 -2 8 -10 18 -17 15 -13 16 -12 3 4 -13 16 -21 21 -21
13z"/>
<path d="M916 3057 c3 -10 9 -15 12 -12 3 3 0 11 -7 18 -10 9 -11 8 -5 -6z"/>
<path d="M1050 2780 c0 -5 5 -10 11 -10 5 0 7 5 4 10 -3 6 -8 10 -11 10 -2 0
-4 -4 -4 -10z"/>
<path d="M9433 2765 c0 -8 4 -12 9 -9 5 3 6 10 3 15 -9 13 -12 11 -12 -6z"/>
<path d="M9435 2720 c-3 -5 -1 -10 4 -10 6 0 11 5 11 10 0 6 -2 10 -4 10 -3 0
-8 -4 -11 -10z"/>
<path d="M1030 2679 c0 -5 5 -7 10 -4 6 3 10 8 10 11 0 2 -4 4 -10 4 -5 0 -10
-5 -10 -11z"/>
<path d="M9316 2682 c-3 -5 1 -9 9 -9 8 0 12 4 9 9 -3 4 -7 8 -9 8 -2 0 -6 -4
-9 -8z"/>
<path d="M9206 2577 c3 -10 9 -15 12 -12 3 3 0 11 -7 18 -10 9 -11 8 -5 -6z"/>
<path d="M9136 2438 c3 -5 10 -6 15 -3 13 9 11 12 -6 12 -8 0 -12 -4 -9 -9z"/>
<path d="M1263 2425 c0 -8 4 -12 9 -9 5 3 6 10 3 15 -9 13 -12 11 -12 -6z"/>
<path d="M8751 2004 c0 -11 3 -14 6 -6 3 7 2 16 -1 19 -3 4 -6 -2 -5 -13z"/>
<path d="M8650 1899 c0 -5 5 -7 10 -4 6 3 10 8 10 11 0 2 -4 4 -10 4 -5 0 -10
-5 -10 -11z"/>
<path d="M8575 1840 c-3 -5 -1 -10 4 -10 6 0 11 5 11 10 0 6 -2 10 -4 10 -3 0
-8 -4 -11 -10z"/>
<path d="M8556 1727 c3 -10 9 -15 12 -12 3 3 0 11 -7 18 -10 9 -11 8 -5 -6z"/>
<path d="M1833 1685 c0 -8 4 -12 9 -9 5 3 6 10 3 15 -9 13 -12 11 -12 -6z"/>
<path d="M8136 1415 c-9 -26 -7 -32 5 -12 6 10 9 21 6 23 -2 3 -7 -2 -11 -11z"/>
<path d="M8310 1419 c0 -5 5 -7 10 -4 6 3 10 8 10 11 0 2 -4 4 -10 4 -5 0 -10
-5 -10 -11z"/>
<path d="M2225 1340 c-3 -6 1 -7 9 -4 18 7 21 14 7 14 -6 0 -13 -4 -16 -10z"/>
<path d="M8051 1207 c2 -1 13 -9 24 -17 19 -14 19 -14 6 3 -7 9 -18 17 -24 17
-6 0 -8 -1 -6 -3z"/>
<path d="M7673 1085 c0 -8 4 -12 9 -9 5 3 6 10 3 15 -9 13 -12 11 -12 -6z"/>
<path d="M7473 915 c0 -8 4 -12 9 -9 5 3 6 10 3 15 -9 13 -12 11 -12 -6z"/>
<path d="M3310 836 c0 -2 7 -7 16 -10 8 -3 12 -2 9 4 -6 10 -25 14 -25 6z"/>
<path d="M7080 790 c-13 -8 -12 -10 3 -10 9 0 17 5 17 10 0 12 -1 12 -20 0z"/>
<path d="M7110 786 c0 -2 7 -7 16 -10 8 -3 12 -2 9 4 -6 10 -25 14 -25 6z"/>
<path d="M3636 662 c-3 -5 1 -9 9 -9 8 0 12 4 9 9 -3 4 -7 8 -9 8 -2 0 -6 -4
-9 -8z"/>
<path d="M6466 572 c-10 -10 -16 -12 -16 -4 0 7 -4 12 -8 12 -5 0 -9 -6 -9
-14 0 -16 22 -15 38 1 6 6 18 9 25 6 8 -3 14 -3 14 0 0 14 -29 13 -44 -1z"/>
<path d="M6399 553 c-13 -16 -12 -17 4 -4 9 7 17 15 17 17 0 8 -8 3 -21 -13z"/>
<path d="M6327 549 c7 -7 15 -10 18 -7 3 3 -2 9 -12 12 -14 6 -15 5 -6 -5z"/>
<path d="M6145 531 c-3 -5 0 -13 6 -17 8 -5 9 -3 4 6 -6 10 -4 12 9 7 10 -4
15 -3 11 3 -8 13 -22 13 -30 1z"/>
<path d="M6197 523 c3 -7 6 -13 8 -13 2 0 5 6 8 13 3 8 -1 14 -8 14 -7 0 -11
-6 -8 -14z"/>
<path d="M6115 520 c-3 -5 -1 -10 4 -10 6 0 11 5 11 10 0 6 -2 10 -4 10 -3 0
-8 -4 -11 -10z"/>
<path d="M4070 509 c0 -5 5 -7 10 -4 6 3 10 8 10 11 0 2 -4 4 -10 4 -5 0 -10
-5 -10 -11z"/>
<path d="M5830 500 c0 -5 6 -9 13 -7 6 1 11 -4 9 -11 -1 -8 2 -11 8 -7 8 5 7
11 -1 21 -13 16 -29 18 -29 4z"/>
<path d="M5667 489 c7 -7 15 -10 18 -7 3 3 -2 9 -12 12 -14 6 -15 5 -6 -5z"/>
<path d="M5750 479 c0 -5 5 -7 10 -4 6 3 10 8 10 11 0 2 -4 4 -10 4 -5 0 -10
-5 -10 -11z"/>
<path d="M5150 460 c0 -5 5 -10 11 -10 5 0 7 5 4 10 -3 6 -8 10 -11 10 -2 0
-4 -4 -4 -10z"/>
<path d="M5693 455 c0 -8 4 -12 9 -9 5 3 6 10 3 15 -9 13 -12 11 -12 -6z"/>
<path d="M4741 451 c-8 -5 -9 -11 -3 -15 5 -3 12 1 16 9 6 17 6 18 -13 6z"/>
<path d="M4719 393 c-13 -16 -12 -17 4 -4 16 13 21 21 13 21 -2 0 -10 -8 -17
-17z"/>
</g>
</svg>
